<svg width="1746" height="419" viewBox="0 0 1746 419" fill="none" xmlns="http://www.w3.org/2000/svg">
<g clipPath="url(#clip0_1410_903)">
<mask id="mask0_1410_903" style="mask-type:luminance" maskUnits="userSpaceOnUse" x="0" y="0" width="1746" height="419">
<path d="M1746 0H0V419H1746V0Z" fill="white"/>
</mask>
<g mask="url(#mask0_1410_903)">
<path fill-rule="evenodd" clip-rule="evenodd" d="M231.927 34.5278C232.558 35.5991 231.723 36.9233 230.478 36.9233C205.302 36.9233 184.835 56.866 184.355 81.6472C175.734 80.0369 166.801 79.9159 157.976 81.4032C157.367 56.7354 136.952 36.9233 111.857 36.9233C110.613 36.9233 109.776 35.5981 110.409 34.526C122.596 13.8757 145.243 0 171.167 0C197.092 0 219.74 13.8766 231.927 34.5278ZM306.494 187.794C315.059 190.389 323.128 182.858 319.896 174.511C295.876 112.474 224.79 87.0584 170.822 87.0584C116.751 87.0584 44.0778 113.295 21.6237 174.897C18.6006 183.191 26.6489 190.473 35.0856 187.887L164.414 148.239C168.147 147.095 172.137 147.088 175.874 148.22L306.494 187.794ZM20.3613 199.737L164.523 155.995C168.234 154.869 172.195 154.866 175.907 155.986L320.975 199.759C333.089 203.414 341.378 214.577 341.378 227.238V359.122C340.816 391.315 311.911 417.115 279.743 417.115H226.317C221.036 417.115 216.76 412.843 216.76 407.559V361.32C216.76 343.112 227.531 326.631 244.196 319.337C266.538 309.56 292.968 296.335 297.941 269.797C299.545 261.23 293.961 252.968 285.422 251.27C263.829 246.976 239.888 248.634 219.646 257.693C196.663 267.977 190.652 285.083 188.426 308.057L185.729 332.808C184.904 340.372 177.816 346.167 170.214 346.167C162.349 346.167 156.452 340.175 155.6 332.35L152.952 308.057C151.046 288.378 147.59 269.264 127.256 260.164C104.062 249.785 80.7523 246.339 55.956 251.27C47.4161 252.968 41.8332 261.23 43.4376 269.797C48.4523 296.565 74.6755 309.488 97.1814 319.337C113.848 326.631 124.619 343.112 124.619 361.32V407.551C124.619 412.835 120.344 417.115 115.063 417.115H61.634C29.4677 417.115 0.561774 391.315 0 359.122V227.202C0 214.559 8.26867 203.406 20.3613 199.737Z" fill="white"/>
<path d="M448.297 366.194V133.765H556.331C582.037 133.765 601.87 139.15 615.832 149.92C629.794 160.69 636.774 175.416 636.774 194.098C636.774 207.944 632.563 219.703 624.143 229.374C615.942 239.046 604.641 245.53 590.236 248.827V243.551C607.079 246.409 620.042 252.783 629.128 262.674C638.436 272.344 643.09 284.983 643.09 300.586C643.09 321.247 635.666 337.403 620.819 349.05C606.192 360.48 585.914 366.194 559.988 366.194H448.297ZM497.826 327.951H553.67C566.525 327.951 576.386 325.533 583.256 320.698C590.126 315.863 593.561 308.169 593.561 297.62C593.561 286.85 590.126 279.158 583.256 274.541C576.386 269.706 566.525 267.288 553.67 267.288H497.826V327.951ZM497.826 229.374H547.023C560.54 229.374 570.513 226.956 576.941 222.121C583.366 217.286 586.581 210.033 586.581 200.363C586.581 190.911 583.366 183.768 576.941 178.932C570.513 174.097 560.54 171.679 547.023 171.679H497.826V229.374Z" fill="white"/>
<path d="M676.096 366.194V243.221C676.096 235.968 675.873 228.605 675.431 221.132C675.209 213.661 674.654 206.298 673.77 199.043H721.967L727.618 247.838H719.974C722.19 235.968 725.735 226.187 730.611 218.496C735.707 210.802 741.913 205.088 749.225 201.352C756.762 197.615 765.293 195.747 774.821 195.747C779.033 195.747 782.356 195.966 784.794 196.406C787.232 196.626 789.67 197.176 792.106 198.055L791.774 241.903C787.12 239.924 783.132 238.716 779.808 238.275C776.705 237.616 772.715 237.288 767.841 237.288C758.533 237.288 750.776 239.046 744.573 242.562C738.59 246.079 734.046 251.245 730.943 258.057C728.063 264.871 726.621 273.113 726.621 282.784V366.194H676.096Z" fill="white"/>
<path d="M876.954 369.822C862.329 369.822 849.476 366.304 838.395 359.272C827.315 352.237 818.672 342.238 812.466 329.269C806.263 316.302 803.16 300.696 803.16 282.455C803.16 264.432 806.263 248.935 812.466 235.968C818.672 223 827.315 213.11 838.395 206.298C849.476 199.263 862.329 195.747 876.954 195.747C890.472 195.747 902.55 199.043 913.188 205.637C924.047 212.012 931.137 220.693 934.462 231.683H930.805L934.794 199.043H982.994C982.33 206.298 981.665 213.661 981 221.132C980.556 228.386 980.334 235.529 980.334 242.562V366.194H930.473L930.14 334.875H934.13C930.585 345.425 923.493 353.886 912.855 360.261C902.218 366.635 890.252 369.822 876.954 369.822ZM892.245 332.237C903.769 332.237 913.078 328.171 920.168 320.039C927.26 311.907 930.805 299.378 930.805 282.455C930.805 265.53 927.26 253.111 920.168 245.2C913.078 237.288 903.769 233.332 892.245 233.332C880.721 233.332 871.415 237.288 864.323 245.2C857.231 253.111 853.686 265.53 853.686 282.455C853.686 299.378 857.121 311.907 863.991 320.039C871.083 328.171 880.501 332.237 892.245 332.237Z" fill="white"/>
<path d="M1086.98 369.822C1072.36 369.822 1059.5 366.304 1048.42 359.272C1037.34 352.237 1028.7 342.238 1022.5 329.269C1016.29 316.302 1013.19 300.696 1013.19 282.455C1013.19 264.432 1016.29 248.935 1022.5 235.968C1028.7 223 1037.34 213.11 1048.42 206.298C1059.5 199.263 1072.36 195.747 1086.98 195.747C1100.5 195.747 1112.58 199.043 1123.21 205.637C1134.07 212.012 1141.16 220.693 1144.49 231.683H1140.83L1144.82 199.043H1193.02C1192.36 206.298 1191.69 213.661 1191.03 221.132C1190.58 228.386 1190.36 235.529 1190.36 242.562V366.194H1140.5L1140.17 334.875H1144.16C1140.61 345.425 1133.52 353.886 1122.88 360.261C1112.25 366.635 1100.28 369.822 1086.98 369.822ZM1102.27 332.237C1113.8 332.237 1123.1 328.171 1130.2 320.039C1137.29 311.907 1140.83 299.378 1140.83 282.455C1140.83 265.53 1137.29 253.111 1130.2 245.2C1123.1 237.288 1113.8 233.332 1102.27 233.332C1090.75 233.332 1081.44 237.288 1074.35 245.2C1067.26 253.111 1063.71 265.53 1063.71 282.455C1063.71 299.378 1067.15 311.907 1074.02 320.039C1081.11 328.171 1090.53 332.237 1102.27 332.237Z" fill="white"/>
<path d="M1278.77 366.194L1205.97 199.042H1258.83L1307.03 320.368H1296.06L1345.92 199.042H1395.45L1321.99 366.194H1278.77Z" fill="white"/>
<path d="M1488.87 369.822C1470.92 369.822 1455.3 366.304 1442 359.272C1428.93 352.019 1418.73 341.908 1411.42 328.941C1404.33 315.973 1400.79 300.478 1400.79 282.455C1400.79 264.651 1404.33 249.266 1411.42 236.298C1418.73 223.331 1428.93 213.33 1442 206.298C1455.3 199.263 1470.92 195.747 1488.87 195.747C1506.83 195.747 1522.45 199.263 1535.74 206.298C1549.04 213.33 1559.23 223.331 1566.33 236.298C1573.64 249.266 1577.3 264.651 1577.3 282.455C1577.3 300.478 1573.64 315.973 1566.33 328.941C1559.23 341.908 1549.04 352.019 1535.74 359.272C1522.45 366.304 1506.83 369.822 1488.87 369.822ZM1488.87 332.237C1500.4 332.237 1509.48 328.171 1516.13 320.039C1523 311.907 1526.44 299.378 1526.44 282.455C1526.44 265.53 1523 253.111 1516.13 245.2C1509.48 237.288 1500.4 233.332 1488.87 233.332C1477.35 233.332 1468.15 237.288 1461.28 245.2C1454.64 253.111 1451.31 265.53 1451.31 282.455C1451.31 299.378 1454.64 311.907 1461.28 320.039C1468.15 328.171 1477.35 332.237 1488.87 332.237Z" fill="white"/>
<path d="M1671.87 369.822C1656.8 369.822 1643.06 368.173 1630.65 364.876C1618.24 361.579 1607.72 356.964 1599.07 351.03L1612.04 318.06C1620.68 323.336 1630.21 327.512 1640.62 330.589C1651.26 333.666 1661.79 335.204 1672.2 335.204C1681.95 335.204 1689.16 333.666 1693.81 330.589C1698.46 327.512 1700.79 323.336 1700.79 318.06C1700.79 313.666 1699.24 310.259 1696.14 307.841C1693.26 305.423 1688.71 303.665 1682.51 302.565L1648.27 296.302C1633.87 293.444 1622.9 288.17 1615.36 280.476C1607.83 272.783 1604.06 262.784 1604.06 250.475C1604.06 239.705 1606.94 230.253 1612.7 222.121C1618.69 213.769 1627.22 207.285 1638.3 202.67C1649.38 198.055 1662.34 195.747 1677.19 195.747C1689.82 195.747 1701.79 197.286 1713.09 200.363C1724.39 203.439 1734.03 208.164 1742.01 214.538L1728.38 246.518C1721.51 241.464 1713.53 237.398 1704.45 234.319C1695.58 231.243 1687.05 229.704 1678.85 229.704C1668.22 229.704 1660.57 231.463 1655.92 234.98C1651.26 238.275 1648.94 242.562 1648.94 247.838C1648.94 251.793 1650.26 255.09 1652.92 257.728C1655.81 260.366 1660.13 262.343 1665.89 263.663L1700.46 269.927C1715.31 272.564 1726.61 277.51 1734.37 284.763C1742.12 292.015 1746 302.016 1746 314.763C1746 326.413 1742.9 336.304 1736.69 344.436C1730.49 352.568 1721.73 358.831 1710.43 363.228C1699.35 367.624 1686.5 369.822 1671.87 369.822Z" fill="white"/>
</g>
</g>
<defs>
<clipPath id="clip0_1410_903">
<rect width="1746" height="419" fill="white"/>
</clipPath>
</defs>
</svg>
