<svg xmlns="http://www.w3.org/2000/svg" width="1008" height="285" viewBox="0 0 1008 285" fill="none">
<mask id="mask0_1601_852" style="mask-type:luminance" maskUnits="userSpaceOnUse" x="0" y="0" width="1008" height="285">
<path d="M1007.01 0H0.601562V285H1007.01V0Z" fill="white"/>
</mask>
<g mask="url(#mask0_1601_852)">
<path d="M76.9142 27.7124L122.017 1.6324C123.302 0.890436 124.895 0.890436 126.18 1.6324L245.051 70.3505C246.335 71.0924 247.126 72.465 247.139 73.9489L247.299 121.212C247.299 122.708 246.508 124.094 245.211 124.836L200.17 150.878C197.403 152.486 193.933 150.482 193.92 147.28L193.772 104.864C193.772 103.38 192.97 102.008 191.686 101.266L76.9142 34.9341C74.1354 33.3265 74.1354 29.3199 76.9142 27.7124Z" fill="white"/>
<path d="M47.7796 241.793L2.68876 215.725C1.39198 214.983 0.601562 213.61 0.601562 212.114V74.678C0.601562 73.1941 1.39198 71.8215 2.67641 71.0671L43.4817 47.2872C44.7785 46.5328 46.3717 46.5328 47.6561 47.2872L92.6975 73.3301C95.464 74.9377 95.4763 78.9319 92.7099 80.5519L56.1037 101.883C54.8193 102.625 54.0289 103.998 54.0289 105.494V238.194C54.0289 241.409 50.5584 243.401 47.7796 241.793Z" fill="white"/>
<path d="M247.299 159.966V212.102C247.299 213.599 246.509 214.971 245.211 215.712L126.34 284.431C125.056 285.173 123.475 285.173 122.191 284.431L81.2246 260.935C79.9278 260.193 79.125 258.809 79.125 257.312V205.239C79.125 202.037 82.5831 200.032 85.362 201.615L122.117 222.699C123.401 223.442 124.982 223.429 126.266 222.699L241.037 156.344C243.815 154.737 247.286 156.74 247.286 159.955L247.299 159.966Z" fill="white"/>
<path d="M632.774 72.7617H586.733C584.732 72.7617 583.125 74.3818 583.125 76.385V164.073C583.125 175.288 581.311 184.674 577.667 192.218C574.023 199.538 569.021 205.029 562.649 208.689C556.277 212.115 548.99 213.846 540.802 213.846C528.958 213.846 519.744 210.297 513.149 203.211C506.777 195.891 503.59 184.55 503.59 169.23V76.3974C503.59 74.394 501.972 72.7741 499.983 72.7741H466.539C466.268 72.7246 465.996 72.6999 465.724 72.6999H399.107V68.9901C399.107 60.0618 401.157 53.4336 405.258 49.0808C409.58 44.5054 415.619 42.2176 423.35 42.2176C427.451 42.2176 431.317 42.7865 434.959 43.9366C437.207 44.6537 439.418 45.5812 441.333 46.5953C443.246 47.6092 445.618 46.6447 446.347 44.5919L457.857 12.6999C458.45 11.0429 457.783 9.18796 456.264 8.30998C451.768 5.70074 446.495 3.73454 440.419 2.39901C433.367 0.803792 425.969 0 418.226 0C395.476 0 377.951 6.29431 365.65 18.883C353.362 31.2365 347.21 47.8318 347.21 68.6562V72.6999H323.153C320.794 72.6999 318.867 74.3198 318.867 76.3232V110.256C318.867 112.259 320.782 113.879 323.153 113.879H347.21V253.8C347.21 255.803 348.829 257.424 350.818 257.424H396.847C398.835 257.424 400.453 255.803 400.453 253.8V113.879H450.323V177.107C450.323 196.1 453.621 211.78 460.228 224.135C466.836 236.265 476.049 245.305 487.881 251.253C499.947 257.201 513.606 260.182 528.846 260.182C542.963 260.182 555.93 256.979 567.762 250.561C574.802 246.69 580.828 241.744 585.855 235.758V253.8C585.855 255.803 587.474 257.424 589.461 257.424H632.774C634.775 257.424 636.38 255.803 636.38 253.8V76.3974C636.38 74.394 634.763 72.7741 632.774 72.7741V72.7617Z" fill="white"/>
<path d="M787.798 160.622C781.425 156.727 774.249 153.759 766.283 151.694C758.331 149.641 750.352 148.145 742.386 147.229C734.654 146.08 727.479 144.83 720.872 143.459C714.277 142.085 708.917 140.255 704.829 137.967C700.951 135.68 699.024 132.255 699.024 127.667C699.024 122.634 701.753 118.515 707.225 115.313C712.683 112.11 721.341 110.515 733.172 110.515C741.596 110.515 750.241 111.541 759.121 113.607C767.087 115.202 774.954 118.12 782.747 122.35C784.587 123.339 786.86 122.609 787.749 120.718L802.446 89.1837C803.248 87.4648 802.594 85.3873 800.939 84.4846C792.812 80.0451 782.981 76.595 771.422 74.1589C758.454 71.4136 745.708 70.041 733.185 70.041C715.438 70.041 700.186 72.675 687.44 77.9306C674.695 82.976 664.913 89.9504 658.083 98.8786C651.487 107.807 648.178 118.095 648.178 129.769C648.178 140.292 650.117 148.874 653.983 155.515C658.083 162.144 663.431 167.411 670.025 171.307C676.633 175.201 683.907 178.17 691.873 180.234C699.839 182.064 707.694 183.549 715.426 184.699C723.392 185.849 730.678 186.987 737.273 188.124C743.868 189.275 749.105 190.993 752.983 193.281C757.083 195.346 759.133 198.549 759.133 202.889C759.133 208.157 756.515 212.275 751.279 215.243C746.277 218.211 737.619 219.707 725.33 219.707C714.178 219.707 702.804 218.112 691.194 214.909C681.302 211.929 672.533 208.256 664.875 203.892C663.036 202.84 660.701 203.582 659.812 205.511L645.066 237.452C644.287 239.134 644.918 241.125 646.487 242.09C654.576 247.036 665.036 251.253 677.868 254.728C692.429 258.388 707.571 260.218 723.268 260.218V260.193C741.694 260.193 757.293 257.683 770.039 252.651C783.005 247.618 792.911 240.754 799.74 232.061C806.57 223.144 809.979 212.956 809.979 201.516C809.979 190.993 807.929 182.522 803.829 176.117C799.729 169.477 794.381 164.332 787.785 160.672L787.798 160.622Z" fill="white"/>
<path d="M994.392 114.658C985.969 100.239 974.483 89.2579 959.91 81.7023C945.572 73.924 930.096 70.0288 911.435 70.0288C892.774 70.0288 876.04 74.1467 861.256 82.3824C846.46 90.3832 834.74 101.599 826.095 116.018C817.673 130.202 813.461 146.797 813.461 165.098C813.461 183.401 817.783 199.773 826.429 214.179C835.073 228.364 847.251 239.579 862.948 247.815C878.88 256.05 897.306 260.169 918.253 260.169V260.193C934.876 260.193 949.561 257.671 962.294 252.651C973.915 247.852 983.733 241.236 991.762 232.828C993.071 231.455 993.071 229.279 991.786 227.869L968.136 202.086C966.802 200.639 964.579 200.54 963.084 201.839C957.638 206.599 951.685 210.26 945.213 212.819C937.927 215.788 929.393 217.283 919.611 217.283C908.693 217.283 899.134 215.343 890.934 211.447C882.968 207.329 876.707 201.491 872.161 193.949C869.803 189.72 868.123 185.132 867.048 180.21H1002.72C1004.57 180.21 1006.13 178.788 1006.3 176.933C1006.42 175.659 1006.55 174.337 1006.66 173C1006.89 170.255 1007 167.856 1007 165.791C1007 145.882 1002.79 128.842 994.368 114.645L994.392 114.658ZM887.538 116.723C894.59 112.605 902.679 110.54 911.781 110.54C920.883 110.54 928.85 112.605 935.68 116.723C942.509 120.606 947.856 126.109 951.722 133.194C954.29 137.893 955.983 143.162 956.847 148.973H866.431C867.32 143.261 869 138.104 871.494 133.529C875.373 126.208 880.708 120.606 887.538 116.711V116.723Z" fill="white"/>
</g>
</svg>