<svg width="1690" height="461" viewBox="0 0 1690 461" fill="none" xmlns="http://www.w3.org/2000/svg">
<path d="M516.152 265.065C516.152 211.575 555.332 173.076 609.161 173.076C662.995 173.076 702.175 211.575 702.175 265.065C702.175 318.555 662.995 357.054 609.161 357.054C555.672 357.395 516.152 318.896 516.152 265.065ZM663.335 265.065C663.335 231.677 641.865 206.465 609.161 206.465C576.455 206.465 555.332 231.677 555.332 265.065C555.332 298.113 576.455 323.666 609.161 323.666C641.865 323.666 663.335 298.454 663.335 265.065Z" fill="white"/>
<path d="M716.826 329.117L737.266 300.157C749.866 313.104 769.286 324.006 793.816 324.006C814.596 324.006 824.826 314.467 824.826 304.246C824.826 272.901 722.276 294.366 722.276 227.248C722.276 197.607 747.826 173.076 789.726 173.076C818.006 173.076 841.516 181.594 859.236 197.947L838.106 225.544C823.796 212.257 804.376 206.124 786.326 206.124C769.966 206.124 761.116 213.279 761.116 223.841C761.116 252.119 863.316 233.039 863.316 299.476C863.316 332.183 840.156 356.714 792.116 356.714C758.046 357.395 733.516 345.811 716.826 329.117Z" fill="white"/>
<path d="M1043.88 353.988V229.292L993.805 353.988H977.115L927.025 229.292V353.988H889.215V176.143H942.365L985.625 283.804L1028.89 176.143H1082.38V353.988H1043.88Z" fill="white"/>
<path d="M1108.62 265.065C1108.62 211.575 1147.8 173.076 1201.63 173.076C1255.46 173.076 1294.64 211.575 1294.64 265.065C1294.64 318.555 1255.46 357.054 1201.63 357.054C1147.8 357.395 1108.62 318.896 1108.62 265.065ZM1255.8 265.065C1255.8 231.677 1234.34 206.465 1201.63 206.465C1168.93 206.465 1147.8 231.677 1147.8 265.065C1147.8 298.113 1168.93 323.666 1201.63 323.666C1234.34 323.666 1255.8 298.454 1255.8 265.065Z" fill="white"/>
<path d="M1309.29 329.117L1329.74 300.157C1342.34 313.104 1361.76 324.006 1386.29 324.006C1407.07 324.006 1417.29 314.467 1417.29 304.246C1417.29 272.901 1314.74 294.366 1314.74 227.248C1314.74 197.607 1340.3 173.076 1382.2 173.076C1410.48 173.076 1433.99 181.594 1451.7 197.947L1430.92 225.885C1416.61 212.597 1397.19 206.465 1379.14 206.465C1362.78 206.465 1353.92 213.62 1353.92 224.181C1353.92 252.459 1456.13 233.38 1456.13 299.817C1456.13 332.524 1432.97 357.054 1384.93 357.054C1350.52 357.395 1325.99 345.811 1309.29 329.117Z" fill="white"/>
<path d="M1481.34 353.988V176.143H1519.5V353.988H1481.34Z" fill="white"/>
<path d="M1542.67 329.117L1563.11 300.157C1575.72 313.104 1595.14 324.006 1619.67 324.006C1640.45 324.006 1650.67 314.467 1650.67 304.246C1650.67 272.901 1548.12 294.366 1548.12 227.248C1548.12 197.607 1573.67 173.076 1615.58 173.076C1643.86 173.076 1667.36 181.594 1685.08 197.947L1663.96 225.544C1649.65 212.257 1630.23 206.124 1612.17 206.124C1595.82 206.124 1586.96 213.279 1586.96 223.841C1586.96 252.119 1689.17 233.039 1689.17 299.476C1689.17 332.183 1666 356.714 1617.96 356.714C1583.55 357.395 1559.02 345.811 1542.67 329.117Z" fill="white"/>
<path d="M428.252 81.427C423.483 63.37 408.152 45.313 380.555 25.212C358.41 9.19897 334.902 0 316.164 0C312.416 0 309.009 0.340973 305.602 1.02197C297.085 2.72597 289.59 8.85798 284.82 18.057C279.028 28.959 277.666 43.61 281.413 52.468C282.776 55.193 284.479 58.6 286.524 61.667C268.467 72.569 258.246 75.635 256.883 75.976C303.899 91.648 343.079 124.356 367.609 166.943L367.95 162.855C368.972 151.271 372.379 138.665 377.148 125.378C381.918 126.741 386.688 127.422 391.457 127.422C404.063 127.422 414.965 122.311 421.779 113.113C428.593 103.914 431.319 91.989 428.252 81.427Z" fill="black"/>
<path d="M379.193 115.499C410.196 124.017 422.801 100.168 418.713 84.155C414.625 68.142 399.975 51.788 374.763 33.39C349.552 14.992 324 7.49701 307.647 10.904C291.293 14.311 286.524 39.182 290.612 48.722C292.315 52.469 296.063 57.921 301.173 64.053C294.7 68.482 288.568 71.889 283.457 74.956C314.801 88.924 342.057 110.729 362.498 137.985C364.883 128.786 368.29 120.61 371.357 113.455C373.741 114.136 376.467 114.818 379.193 115.499Z" fill="white"/>
<path d="M201.692 449.726C306.873 449.726 392.14 364.457 392.14 259.274C392.14 154.09 306.873 68.8223 201.692 68.8223C96.5102 68.8223 11.2441 154.09 11.2441 259.274C11.2441 364.457 96.5102 449.726 201.692 449.726Z" fill="white"/>
<path d="M328.77 44.9729C335.584 47.6989 344.442 52.4679 355.345 59.6229C368.291 68.1409 379.534 77.6799 386.689 85.1759C374.764 100.848 366.928 122.312 362.159 137.303C364.543 140.71 367.269 144.117 369.654 147.524C372.039 139.006 376.127 126.4 381.578 113.795C382.941 114.135 384.644 114.135 386.348 114.135C390.436 114.135 395.206 113.454 398.954 110.388C401.679 108.343 404.745 104.596 404.405 97.7819C404.405 91.3079 399.294 83.1319 388.733 73.2509C381.237 66.0959 371.017 58.2599 360.796 51.1059C331.496 31.6859 311.054 26.2349 301.856 35.4329C295.723 41.5659 296.405 49.0609 298.449 54.5129C287.546 61.6669 278.348 66.7779 272.215 70.1849C276.304 71.5479 280.051 73.2509 284.14 74.9549C295.042 68.8219 310.714 58.9419 328.77 44.9729ZM393.162 93.3529C394.184 95.0559 394.525 96.7589 394.525 97.7819C394.525 100.848 393.502 101.87 392.821 102.551C391.458 103.573 388.733 104.255 386.348 104.255C388.392 100.507 390.777 96.7599 393.162 93.3529ZM309.01 42.5879C310.032 41.5659 312.758 40.8849 317.187 41.5659C313.78 44.2919 310.373 46.6769 306.966 49.0609C306.625 46.6769 306.966 44.6319 309.01 42.5879Z" fill="black"/>
<path d="M201.691 57.5801C90.284 57.5801 0 147.866 0 259.275C0 370.684 90.284 460.97 201.691 460.97C313.099 460.97 403.383 370.684 403.383 259.275C403.042 147.866 312.758 57.5801 201.691 57.5801ZM201.691 449.386C96.417 449.386 11.243 364.211 11.243 258.934C11.243 153.658 96.417 68.4821 201.691 68.4821C306.966 68.4821 392.14 153.658 392.14 258.934C391.799 364.211 306.625 449.386 201.691 449.386Z" fill="black"/>
<path d="M382.601 257.23C382.601 357.056 301.516 438.142 201.692 438.142C101.869 438.142 20.4434 357.056 20.4434 257.23H382.601Z" fill="black"/>
<path d="M188.925 238.299L188.911 238.303C153.604 248.688 121.8 246.942 98.7956 244.197C73.3117 241.289 54.079 239.743 41.2397 241.835C34.8603 242.875 30.4729 244.755 27.6857 247.447C24.9919 250.048 23.4434 253.749 23.4434 259.274C23.4434 267.102 27.4503 275.812 35.595 284.372C43.7157 292.906 55.7615 301.077 71.2844 307.751C102.314 321.091 146.891 328.295 200.59 320.696C240.514 314.992 266.024 304.996 289.722 295.71C298.368 292.322 306.772 289.028 315.548 286.072C315.548 286.072 315.548 286.072 315.549 286.072L316.506 288.915C327.174 285.29 337.432 282.83 346.543 280.645C367.406 275.642 382.26 272.079 382.26 259.274C382.26 238.491 346.147 226.567 298.109 222.478L188.925 238.299ZM188.925 238.299L188.94 238.294C228.792 226.136 263.505 222.775 297.865 225.468L188.925 238.299Z" fill="white" stroke="black" strokeWidth="6"/>
<path d="M260.973 173.076C277.908 173.076 291.636 159.348 291.636 142.413C291.636 125.478 277.908 111.75 260.973 111.75C244.039 111.75 230.311 125.478 230.311 142.413C230.311 159.348 244.039 173.076 260.973 173.076Z" fill="black"/>
<path d="M311.055 195.903C318.205 195.903 324.002 190.107 324.002 182.957C324.002 175.806 318.205 170.01 311.055 170.01C303.905 170.01 298.109 175.806 298.109 182.957C298.109 190.107 303.905 195.903 311.055 195.903Z" fill="black"/>
<g opacity="0.6">
<path d="M357.388 118.223C357.047 118.223 356.707 118.223 356.707 118.223C354.662 117.882 353.3 115.838 353.64 113.453C356.707 97.7809 369.653 82.7899 370.334 82.1089C371.697 80.4049 374.423 80.4049 375.786 81.7679C377.489 83.1309 377.489 85.8569 376.126 87.2189C375.786 87.5599 363.861 101.529 361.136 115.157C360.795 116.86 359.091 118.223 357.388 118.223Z" fill="url(#paint0_linear_1415_858)"/>
</g>
<defs>
<linearGradient id="paint0_linear_1415_858" x1="376.338" y1="80.2909" x2="350.361" y2="122.503" gradientUnits="userSpaceOnUse">
<stop offset="0.2888" stop-color="white"/>
<stop offset="0.7796" stop-color="white" stop-opacity="0"/>
</linearGradient>
</defs>
</svg>
