<svg width="1669" height="366" viewBox="0 0 1669 366" fill="none" xmlns="http://www.w3.org/2000/svg">
<path d="M305.653 257.285L403.3 200.901C408.477 197.905 411.676 192.352 411.676 186.39V73.6203C411.676 67.6596 408.477 62.1052 403.3 59.1104L305.653 2.72525C300.477 -0.270013 294.049 -0.240796 288.903 2.72525L191.255 59.1104C186.078 62.1052 182.879 67.6596 182.879 73.6203V275.14L114.397 314.658L45.9163 275.14V196.074L114.397 156.554L159.558 182.639V129.598L122.773 108.341C120.242 106.887 117.336 106.102 114.397 106.102C111.46 106.102 108.554 106.887 106.023 108.341L8.37481 164.726C3.19873 167.721 0 173.275 0 179.236V292.005C0 297.968 3.19873 303.522 8.37481 306.517L106.023 362.901C111.199 365.868 117.596 365.868 122.773 362.901L220.421 306.517C225.598 303.522 228.796 297.968 228.796 292.005V90.4859L230.017 89.7889L297.248 50.9678L365.73 90.4859V169.553L297.248 209.071L252.146 183.046V236.087L288.874 257.285C294.049 260.251 300.477 260.251 305.624 257.285H305.653Z" fill="white"/>
<path d="M519.385 341.995V112.153H553.582L556.838 130.706H558.468C568.238 117.998 584.843 108.896 607.96 108.896C650.271 108.896 684.148 143.412 684.148 194.505C684.148 245.598 650.3 280.114 607.96 280.114C585.163 280.114 569.227 270.664 560.764 259.934H559.136V341.966H519.414L519.385 341.995ZM644.397 194.534C644.397 164.583 625.175 145.71 601.737 145.71C578.299 145.71 559.078 164.583 559.078 194.534C559.078 224.487 578.299 243.358 601.737 243.358C625.175 243.358 644.397 224.487 644.397 194.534Z" fill="white"/>
<path d="M704.301 194.505C704.301 144.692 740.097 108.896 787.961 108.896C835.826 108.896 871.622 144.692 871.622 194.505C871.622 244.318 835.826 280.114 787.961 280.114C740.097 280.114 704.301 243.97 704.301 194.505ZM831.58 194.505C831.58 165.193 812.039 145.681 787.961 145.681C763.883 145.681 744.023 165.222 744.023 194.505C744.023 223.788 763.883 243.01 787.961 243.01C812.039 243.01 831.58 223.817 831.58 194.505Z" fill="white"/>
<path d="M900.41 276.887V48.9922H940.132V276.887H900.41Z" fill="white"/>
<path d="M1087.59 112.152H1129.9L1058.28 312.363C1051.13 332.225 1041.36 341.995 1015.62 341.995H977.209V305.209H1009.78C1015.65 305.209 1018.88 302.272 1020.86 297.388L1024.75 286.658L957.695 112.152H1000.01L1042.67 226.434H1049.18L1087.59 112.152Z" fill="white"/>
<path d="M1137.49 285.03H1177.86C1179.48 295.76 1190.22 310.416 1215.63 310.416C1239.39 310.416 1255.03 295.44 1255.03 272.641V249.523H1253.4C1244.62 258.974 1228.34 267.437 1207.49 267.437C1165.18 267.437 1132.61 234.868 1132.61 187.992C1132.61 141.116 1165.18 108.896 1207.49 108.896C1229.3 108.896 1245.26 117.678 1255.35 130.065H1256.98L1260.24 112.153H1294.76V272.641C1294.76 316.261 1265.44 345.253 1215.63 345.253C1159.97 345.253 1138.48 308.787 1137.49 285.03ZM1255.03 188.021C1255.03 162.314 1236.8 144.402 1213.68 144.402C1190.56 144.402 1172.65 162.314 1172.65 188.021C1172.65 213.726 1190.88 231.96 1213.68 231.96C1236.48 231.96 1255.03 214.046 1255.03 188.021Z" fill="white"/>
<path d="M1322.35 194.505C1322.35 144.692 1358.15 108.896 1406.01 108.896C1453.87 108.896 1489.68 144.692 1489.68 194.505C1489.68 244.318 1453.87 280.114 1406.01 280.114C1358.15 280.114 1322.35 243.97 1322.35 194.505ZM1449.63 194.505C1449.63 165.193 1430.09 145.681 1406.01 145.681C1381.94 145.681 1362.07 165.222 1362.07 194.505C1362.07 223.788 1381.94 243.01 1406.01 243.01C1430.09 243.01 1449.63 223.817 1449.63 194.505Z" fill="white"/>
<path d="M1517.33 276.887V112.153H1551.49L1554.75 127.769H1556.38C1562.89 120.295 1579.17 108.896 1603.9 108.896C1641.67 108.896 1669 136.23 1669 177.901V276.858H1629.28V183.106C1629.28 161.937 1614.31 146.642 1593.81 146.642C1573.3 146.642 1557.01 162.605 1557.01 183.106V276.858H1517.3L1517.33 276.887Z" fill="white"/>
</svg>
