<svg width="945" height="163" viewBox="0 0 945 163" fill="none" xmlns="http://www.w3.org/2000/svg">
<mask id="mask0_1413_844" style="mask-type:luminance" maskUnits="userSpaceOnUse" x="0" y="2" width="314" height="158">
<path d="M48.0494 78.6102C40.5694 78.6102 33.6794 75.2602 27.3794 68.9602C25.9994 71.3202 25.6094 73.6802 25.6094 76.2402C25.6094 77.8102 25.9994 80.9602 27.3794 84.5102L26.9894 85.1002C15.1794 84.5102 8.28937 81.1602 1.39937 75.8502C0.609374 80.7702 0.609375 82.9402 0.609375 88.8402C0.609375 114.04 23.2494 138.26 53.1694 138.26C83.0894 138.26 105.539 114.24 105.539 86.4802H108.689C110.659 91.8002 111.449 97.5002 110.659 105.18C143.539 118.37 152.399 139.44 152.399 159.71H172.279C173.459 147.31 171.889 136.09 169.329 127.23C166.769 118.37 162.049 106.95 153.189 98.0902L155.749 95.3302C167.559 104.78 169.529 108.32 179.769 121.71C188.239 123.48 195.319 128.4 207.329 128.4C215.009 128.4 223.079 127.22 236.069 121.12C232.329 114.62 229.769 108.72 229.179 97.8902H233.119C240.989 129.98 272.099 135.3 285.489 137.66C297.299 139.63 301.439 148.49 301.439 157.15C301.439 157.94 301.439 158.53 301.239 159.71H312.459C312.849 156.76 313.049 154 313.049 151.05C313.049 144.75 312.659 138.45 309.699 133.13C299.069 115.21 290.209 108.52 290.209 94.7402C290.209 80.9602 300.639 71.1202 301.229 70.5202C295.129 69.5402 292.959 63.6302 288.829 57.3302C279.769 43.3502 264.609 41.1902 256.739 41.1902C248.869 41.1902 244.529 42.1702 236.859 42.1702C201.619 42.1702 183.899 2.2002 140.979 2.2002C113.809 2.2002 95.1094 21.8902 92.3494 47.2802L91.7594 47.4802C88.2194 43.5402 82.1094 38.2302 75.0294 35.8602C75.0294 36.8402 75.2294 38.0302 75.2294 39.2102C75.2294 58.1102 70.1094 78.5802 48.0594 78.5802L48.0494 78.6102ZM233.109 159.72H251.029C257.129 154.01 261.069 145.35 262.049 140.43C251.029 135.71 246.099 132.16 239.999 126.26L236.459 129.02C238.429 132.56 239.809 136.5 239.809 141.82C239.809 146.15 239.809 148.71 233.119 159.74L233.109 159.72ZM125.419 159.72H141.559C141.559 138.06 135.259 130.39 126.199 121.72L123.439 123.89C127.179 132.16 127.569 137.87 127.569 143.38C127.569 150.47 126.779 155.19 125.399 159.72H125.419Z" fill="white"/>
</mask>
<g mask="url(#mask0_1413_844)">
<rect x="-7" y="-3.99976" width="329" height="183" fill="white"/>
</g>
<mask id="mask1_1413_844" style="mask-type:luminance" maskUnits="userSpaceOnUse" x="345" y="0" width="600" height="163">
<path d="M345.049 46.9401H349.669V67.1701C354.209 60.1401 359.739 54.7101 366.269 50.9001C372.789 47.0901 380.299 45.1801 388.799 45.1801C391.439 45.1801 394.219 45.4001 397.149 45.8401L396.489 50.4601C394.879 50.1701 393.589 49.9901 392.639 49.9101C391.679 49.8401 390.399 49.8 388.789 49.8C381.319 49.8 374.789 51.2701 369.219 54.2001C363.649 57.1301 358.669 61.5301 354.269 67.3901C353.239 68.7101 352.439 70.0301 351.849 71.3501C351.259 72.6701 350.789 74.2101 350.419 75.9701C350.049 77.7301 349.829 79.6 349.759 81.58C349.679 83.56 349.649 86.0901 349.649 89.1601V159.29H345.029V46.9501L345.049 46.9401ZM422.829 2.31006H427.449V66.7201C433.019 58.8101 439.759 52.9501 447.679 49.1301C455.589 45.3201 463.799 43.4101 472.299 43.4101C484.899 43.4101 494.359 46.9301 500.659 53.9601C506.959 60.9901 510.109 71.04 510.109 84.08V159.27H505.489V84.9601C505.489 72.8001 502.779 63.5601 497.359 57.2601C491.939 50.9601 483.429 47.8101 471.859 47.8101C465.259 47.8101 459.069 48.91 453.279 51.11C447.489 53.31 442.029 56.9001 436.899 61.8801C434.699 63.9301 432.979 65.8401 431.729 67.6001C430.479 69.3601 429.529 71.2301 428.869 73.2101C428.209 75.1901 427.799 77.4601 427.659 80.0301C427.509 82.6001 427.439 85.6401 427.439 89.1501V159.28H422.819V2.31006H422.829ZM546.139 2.31006H550.759V22.5401H546.139V2.31006ZM546.139 46.9401H550.759V159.28H546.139V46.9401ZM587.139 46.9401H591.759V66.9501C597.329 58.8901 604.069 52.9501 611.989 49.1401C619.899 45.3301 628.109 43.4201 636.609 43.4201C649.209 43.4201 658.669 46.98 664.969 54.08C671.269 61.19 674.419 71.1901 674.419 84.0901V159.28H669.799V84.9701C669.799 72.9601 667.089 63.7601 661.669 57.3801C656.249 51.0001 647.739 47.8201 636.169 47.8201C629.569 47.8201 623.379 48.9201 617.589 51.1201C611.799 53.3201 606.339 56.9101 601.209 61.8901C599.009 63.9401 597.289 65.85 596.039 67.61C594.789 69.37 593.839 71.2401 593.179 73.2201C592.519 75.2001 592.109 77.4701 591.969 80.0401C591.819 82.6101 591.749 85.6501 591.749 89.1601V159.29H587.129V46.9501L587.139 46.9401ZM756.699 43.4201C765.789 43.4201 773.549 45.0301 779.999 48.2601C786.449 51.4801 791.719 55.8101 795.829 61.2301C799.929 66.6501 802.939 72.9601 804.839 80.1401C806.739 87.3201 807.699 94.8701 807.699 102.78C807.699 110.69 806.739 118.5 804.839 125.75C802.929 133.01 799.929 139.38 795.829 144.88C791.719 150.38 786.409 154.74 779.889 157.96C773.369 161.18 765.559 162.8 756.479 162.8C747.399 162.8 739.619 161.19 733.179 157.96C726.729 154.74 721.449 150.41 717.349 144.99C713.249 139.57 710.239 133.27 708.339 126.08C706.429 118.9 705.479 111.28 705.479 103.22C705.479 95.16 706.429 87.7201 708.339 80.4701C710.239 73.2101 713.249 66.8401 717.349 61.3401C721.449 55.8501 726.769 51.4901 733.289 48.2601C739.809 45.0401 747.609 43.4201 756.699 43.4201ZM710.309 103.44C710.309 110.77 711.149 117.77 712.839 124.43C714.519 131.1 717.199 136.96 720.859 142.02C724.519 147.08 729.289 151.07 735.149 154C741.009 156.93 748.119 158.4 756.469 158.4C764.819 158.4 771.969 156.9 777.909 153.89C783.849 150.89 788.639 146.86 792.309 141.8C795.969 136.74 798.649 130.85 800.329 124.1C802.009 117.36 802.859 110.33 802.859 103C802.859 95.6701 802.009 88.6801 800.329 82.0101C798.639 75.3401 795.969 69.4801 792.309 64.4201C788.639 59.3601 783.849 55.33 777.909 52.33C771.969 49.33 764.829 47.8201 756.469 47.8201C748.109 47.8201 741.009 49.32 735.149 52.33C729.289 55.34 724.519 59.4001 720.859 64.5301C717.189 69.6601 714.519 75.6001 712.839 82.3401C711.149 89.0801 710.309 96.1201 710.309 103.44ZM836.909 137.96H841.529V159.28H836.909V137.96ZM877.009 51.3401H859.639V46.9401H877.009V32.8701C877.009 27.4501 877.779 22.7201 879.319 18.6901C880.859 14.6601 883.019 11.29 885.809 8.58005C888.589 5.87005 891.859 3.85006 895.589 2.53006C899.329 1.21006 903.389 0.550049 907.789 0.550049C909.989 0.550049 912.409 0.770052 915.039 1.21005C917.669 1.65005 920.099 2.24006 922.299 2.97006L921.199 7.15005C918.849 6.42005 916.689 5.87006 914.709 5.50006C912.729 5.14006 910.419 4.95007 907.789 4.95007C899.729 4.95007 893.349 7.26006 888.659 11.8701C883.969 16.4901 881.619 23.4101 881.619 32.6501V46.9401H916.579V51.3401H881.619V159.28H876.999V51.3401H877.009ZM939.889 2.32007H944.509V22.55H939.889V2.32007ZM939.889 46.9501H944.509V159.29H939.889V46.9501Z" fill="white"/>
</mask>
<g mask="url(#mask1_1413_844)">
<rect x="-25.3516" y="-469" width="1410" height="945" fill="white"/>
</g>
</svg>
