<svg width="700" height="159" viewBox="0 0 700 159" fill="none" xmlns="http://www.w3.org/2000/svg">
<path d="M2.16211 79.2606C2.16211 121.786 36.6352 156.259 79.1609 156.259C121.687 156.259 156.162 121.786 156.162 79.2606C156.162 36.7349 121.687 2.26172 79.1609 2.26172C36.6352 2.26172 2.16211 36.7348 2.16211 79.2606Z" fill="white"/>
<path fill-rule="evenodd" clip-rule="evenodd" d="M44.3163 60.6493L46.2664 54.6245C46.6628 53.3991 47.6299 52.4456 48.8598 52.0696L54.9141 50.2078C55.7521 49.9518 55.7589 48.7695 54.9277 48.5L48.9006 46.5498C47.6775 46.1535 46.7239 45.1863 46.3457 43.9565L44.4861 37.9022C44.2302 37.0664 43.0479 37.0573 42.7783 37.8909L40.8282 43.9157C40.4318 45.1388 39.4647 46.0923 38.2348 46.4706L32.1805 48.3301C31.3425 48.5883 31.3334 49.7684 32.1669 50.0379L38.194 51.988C39.4171 52.3844 40.3707 53.3538 40.7489 54.5837L42.6085 60.6357C42.8644 61.4738 44.0467 61.4828 44.3163 60.6493Z" fill="black"/>
<path fill-rule="evenodd" clip-rule="evenodd" d="M140.009 57.1426C137.514 54.3516 133.618 52.7801 129.831 52.1357C126.014 51.5168 122.011 51.5742 118.243 52.2437C110.618 53.5335 103.691 56.6907 97.6494 60.5856C94.5119 62.4971 91.8363 64.709 89.0643 66.9615C87.7287 68.1008 86.511 69.3139 85.2428 70.5097L81.7776 73.9575C78.0124 77.8933 74.3011 81.478 70.7103 84.4493C67.105 87.407 63.7343 89.6533 60.4125 91.2219C57.0928 92.7987 53.5407 93.726 48.9108 93.8745C44.3216 94.0363 38.892 93.208 33.0842 91.8409C27.2452 90.4798 21.1136 88.5397 14.2617 86.8703C16.6525 93.503 20.2527 99.3642 24.875 104.722C29.5515 109.987 35.3911 114.786 42.8927 117.942C50.286 121.168 59.577 122.326 68.2644 120.579C76.9748 118.902 84.6186 114.871 90.7972 110.21C96.9917 105.501 102.003 100.137 106.228 94.5595C107.394 93.0188 108.011 92.1564 108.855 90.9521L111.188 87.4966C112.809 85.3592 114.285 82.9256 115.89 80.8079C119.036 76.3727 122.137 71.9427 125.741 67.8612C127.555 65.7911 129.468 63.811 131.726 61.9081C132.853 60.9793 134.069 60.0703 135.417 59.2515C136.785 58.3683 138.23 57.677 140.009 57.1426Z" fill="#727272" fill-opacity="0.55"/>
<path fill-rule="evenodd" clip-rule="evenodd" d="M140.009 57.1424C137.328 50.3765 132.343 44.681 125.653 40.4783C119.002 36.3217 109.766 34.2005 100.614 36.0087C96.0921 36.8832 91.7114 38.5668 87.8673 40.8088C84.0404 43.042 80.6112 45.7301 77.6425 48.614C76.1605 50.0608 74.8153 51.57 73.4789 53.0878L70.0151 57.504L64.6652 64.6128C57.8449 73.7592 50.5004 84.4782 38.4476 87.6544C26.6153 90.7724 21.4834 88.011 14.2617 86.8701C15.5822 90.2793 17.2178 93.59 19.4353 96.5025C21.6114 99.474 24.1817 102.265 27.3773 104.657C28.9922 105.806 30.6972 106.94 32.5909 107.902C34.4759 108.831 36.5087 109.649 38.6785 110.265C42.9945 111.448 47.8536 111.862 52.5583 111.226C57.2652 110.598 61.7642 109.106 65.6968 107.125C69.6584 105.163 73.1094 102.773 76.1909 100.251C82.3164 95.1637 87.081 89.5431 91.1057 83.8616C93.1301 81.021 94.9677 78.1268 96.6672 75.2318L98.6675 71.7852C99.279 70.7777 99.8976 69.764 100.526 68.82C103.06 65.027 105.539 61.9857 108.55 59.7029C111.519 57.3612 115.654 55.6309 121.179 55.229C126.681 54.8222 133.033 55.5736 140.009 57.1424Z" fill="black"/>
<path fill-rule="evenodd" clip-rule="evenodd" d="M110.242 113.359C110.242 118.328 114.273 122.359 119.242 122.359C124.212 122.359 128.237 118.328 128.237 113.359C128.237 108.39 124.212 104.359 119.242 104.359C114.273 104.359 110.242 108.39 110.242 113.359Z" fill="black"/>
<path d="M690.596 57.1706V48.0831C690.596 47.7228 690.304 47.4307 689.944 47.4307H638.164C637.804 47.4307 637.512 47.7228 637.512 48.0831V57.1706H658.556V115.961H669.551V57.1706H690.596Z" fill="white"/>
<path d="M583.395 47.4307C583.034 47.4307 582.742 47.7227 582.742 48.0831V115.308C582.742 115.668 583.034 115.961 583.395 115.961H626.969C627.329 115.961 627.621 115.668 627.621 115.308V106.317H593.737V84.7797H621.732V75.3294H593.737V57.0741H625.208V48.0831C625.208 47.7228 624.916 47.4307 624.555 47.4307H583.395Z" fill="white"/>
<path d="M558.127 115.562L558.364 115.961H566.81C567.171 115.961 567.463 115.668 567.463 115.308V48.0831C567.463 47.7228 567.171 47.4307 566.81 47.4307H556.661V94.8914C554.899 92.086 552.853 88.9978 550.523 85.6275C547.556 81.2413 544.364 76.7918 540.947 72.279C537.595 67.702 534.178 63.2855 530.696 59.0295C527.275 54.7059 524.044 50.9245 521.001 47.6876L520.76 47.4307H512.811C512.45 47.4307 512.158 47.7227 512.158 48.0831V115.308C512.158 115.668 512.45 115.961 512.811 115.961H522.96V65.1177C524.348 66.7566 525.825 68.5729 527.392 70.567C529.509 73.2615 531.691 76.1497 533.939 79.2318L533.941 79.2351L533.944 79.2384C536.189 82.2543 538.436 85.3992 540.683 88.6732L540.686 88.6776L540.689 88.682C543.001 91.9576 545.216 95.2006 547.335 98.411L547.337 98.4142L547.34 98.4173C549.457 101.561 551.413 104.608 553.208 107.557L553.211 107.562L553.215 107.568C555.078 110.523 556.716 113.188 558.127 115.562Z" fill="white"/>
<path d="M498.878 48.7956L499.127 48.5226C499.509 48.1038 499.212 47.4307 498.645 47.4307H486.607L486.363 47.7137C484.765 49.5672 482.78 51.7453 480.404 54.2493C478.09 56.6916 475.615 59.2633 472.979 61.9637C470.344 64.6632 467.676 67.3627 464.977 70.0623C462.818 72.1702 460.803 74.113 458.932 75.8908V47.4307H448.59C448.23 47.4307 447.938 47.7227 447.938 48.0831V115.308C447.938 115.668 448.23 115.961 448.59 115.961H458.932V84.8713C461.202 86.3577 463.523 88.097 465.894 90.0909L465.898 90.0938L465.901 90.0966C468.773 92.458 471.583 95.0443 474.331 97.856L474.337 97.8627L474.344 97.8693C477.153 100.615 479.803 103.52 482.294 106.585L482.296 106.588L482.299 106.592C484.789 109.593 486.989 112.59 488.9 115.584L489.14 115.961H500.874C501.376 115.961 501.69 115.418 501.44 114.983L501.299 114.739C499.538 111.674 497.328 108.457 494.672 105.087C492.083 101.722 489.3 98.4231 486.326 95.1894C483.351 91.9552 480.31 88.914 477.203 86.066C474.389 83.4865 471.7 81.2716 469.137 79.4246C471.317 77.2969 473.628 75.0122 476.07 72.5705C478.775 69.8652 481.48 67.1279 484.185 64.3583C486.955 61.5242 489.596 58.7864 492.109 56.1449L492.112 56.1413L492.116 56.1377C494.627 53.4334 496.881 50.9859 498.878 48.7956Z" fill="white"/>
<path fill-rule="evenodd" clip-rule="evenodd" d="M385.525 46.917C385.165 46.9171 384.873 47.2092 384.873 47.5694V115.349C384.873 115.71 385.165 116.002 385.525 116.002H394.842V91.0812H408.452C409.983 92.9145 411.476 94.8327 412.933 96.8357L412.938 96.8433L412.944 96.8508C415.326 99.9741 417.527 103.232 419.548 106.626L419.55 106.629L419.552 106.633C421.382 109.636 422.979 112.602 424.344 115.531L424.563 116.002H435.588C436.061 116.002 436.376 115.515 436.18 115.085C434.912 112.307 433.538 109.586 432.012 106.936C429.938 103.232 427.663 99.5643 425.188 95.934C423.773 93.8593 422.328 91.8439 420.853 89.8876C424.965 88.6303 428.219 86.3568 430.572 83.0569L430.574 83.0543C433.399 79.0606 434.799 74.3636 434.799 68.9989C434.799 65.3124 434.158 61.9392 432.861 58.8913C431.559 55.799 429.6 53.2345 426.99 51.2113C424.398 49.1773 421.205 47.8831 417.444 47.3027C416.567 47.141 415.661 47.0442 414.727 47.0113C413.815 46.9486 413.019 46.9166 412.342 46.9166C409.484 46.9166 406.625 46.9163 403.767 46.916C397.686 46.9154 391.606 46.915 385.525 46.917ZM424.643 68.9989C424.643 70.7794 424.347 72.5315 423.751 74.2585C423.169 75.917 422.239 77.371 420.954 78.6273C419.736 79.8169 418.13 80.6606 416.095 81.1327C415.45 81.2791 414.756 81.383 414.01 81.4426L414.009 81.4427L414.008 81.4428C413.275 81.5039 412.627 81.5337 412.061 81.5337H394.842V56.4641H412.061C412.627 56.4641 413.275 56.4939 414.008 56.555L414.025 56.5564L414.043 56.5571C414.768 56.5861 415.44 56.6873 416.063 56.857L416.083 56.8626L416.104 56.8671C418.131 57.3078 419.732 58.1484 420.947 59.3637L420.95 59.3671L420.954 59.3703C422.237 60.6247 423.167 62.0932 423.751 63.7841V63.7862L423.752 63.7883C424.346 65.4821 424.643 67.2178 424.643 68.9989Z" fill="white"/>
<path fill-rule="evenodd" clip-rule="evenodd" d="M360.411 106.913L360.412 106.916L360.413 106.919C361.38 109.693 362.412 112.531 363.509 115.433L363.708 115.961H374.737C375.19 115.961 375.505 115.511 375.35 115.085C372.941 108.466 370.509 101.855 368.028 95.2628C365.774 89.2088 363.552 83.4756 361.361 78.0634C359.235 72.651 357.108 67.4952 354.981 62.596C352.847 57.6167 350.601 52.6868 348.262 47.8008C348.153 47.5745 347.925 47.4307 347.674 47.4307H338.877C338.626 47.4307 338.397 47.5745 338.289 47.8008C335.949 52.6869 333.704 57.617 331.57 62.5964C329.443 67.4938 327.285 72.6481 325.095 78.0592L325.093 78.0631L325.092 78.067C322.966 83.4775 320.776 89.2094 318.523 95.2625C316.041 101.855 313.609 108.466 311.2 115.085C311.045 115.511 311.36 115.961 311.813 115.961H322.371L322.372 115.96H322.578L322.82 115.7C325.367 112.966 328.214 110.282 331.362 107.65L331.365 107.648L331.368 107.645C334.528 104.947 337.823 102.445 341.252 100.138L341.26 100.133L341.267 100.127C344.645 97.7404 348.045 95.5986 351.466 93.7013L351.47 93.6991L351.474 93.6968C352.706 92.9956 353.919 92.3424 355.113 91.7369L357.421 98.3295L357.423 98.3345C358.451 101.227 359.447 104.086 360.411 106.913ZM348.546 74.406L348.548 74.4116L348.55 74.4172C349.479 76.7689 350.408 79.1599 351.337 81.5905C351.268 81.6211 351.197 81.6529 351.125 81.6857C347.856 83.1747 344.342 85.0995 340.585 87.456C336.988 89.7121 333.419 92.1632 329.879 94.809L331.378 90.5283C333.361 84.9645 335.344 79.5923 337.327 74.4115C339.15 69.7392 341.049 65.2452 343.023 60.9293C344.939 65.2435 346.78 69.7357 348.546 74.406Z" fill="white"/>
<path d="M313.893 57.1706V48.0831C313.893 47.7228 313.601 47.4307 313.24 47.4307H261.461C261.101 47.4307 260.809 47.7228 260.809 48.0831V57.1706H281.853V115.308C281.853 115.668 282.145 115.961 282.506 115.961H292.196C292.556 115.961 292.848 115.668 292.848 115.308V57.1706H313.893Z" fill="white"/>
<path d="M213.298 115.127L213.295 115.126C209.307 113.426 205.99 110.999 203.36 107.843L203.357 107.839L203.354 107.836C200.751 104.64 199.06 100.872 198.275 96.5518C198.236 96.3358 198.285 96.113 198.412 95.9339C198.539 95.7548 198.733 95.6346 198.95 95.6004L207.721 94.2181C208.136 94.1527 208.533 94.4134 208.637 94.8204C209.703 98.9617 211.897 102.176 215.223 104.506C218.599 106.816 222.58 107.983 227.2 107.983C230.197 107.983 232.875 107.52 235.246 106.609C237.644 105.667 239.506 104.346 240.865 102.662C242.202 101.006 242.877 99.0448 242.877 96.7396C242.877 95.3085 242.623 94.1371 242.152 93.1957C242.148 93.1872 242.144 93.1787 242.14 93.1701C241.682 92.1672 241.042 91.3294 240.217 90.647C240.209 90.6405 240.201 90.6339 240.194 90.6271C239.366 89.8879 238.415 89.263 237.338 88.7542C236.236 88.2337 235.087 87.8045 233.89 87.467L233.879 87.4639L216.384 82.2677C214.436 81.6835 212.553 80.953 210.735 80.0763L210.73 80.0739L210.724 80.0711C208.878 79.1479 207.224 78.0076 205.766 76.6494L205.762 76.645L205.759 76.6427C204.281 75.2319 203.109 73.5548 202.242 71.6198L202.24 71.6151C201.358 69.6149 200.931 67.2896 200.931 64.6607C200.931 60.4463 202.02 56.8071 204.235 53.7874L204.236 53.7861C206.46 50.765 209.459 48.4693 213.203 46.8926C216.943 45.3182 221.138 44.556 225.776 44.5884C230.476 44.6208 234.704 45.4639 238.444 47.1363C242.213 48.7754 245.339 51.142 247.807 54.2353C250.313 57.3353 251.984 61.0345 252.833 65.3123C252.876 65.5276 252.83 65.7511 252.706 65.9322C252.582 66.1132 252.39 66.2366 252.174 66.2744L243.165 67.8473C242.951 67.8846 242.732 67.8353 242.555 67.7103C242.377 67.5852 242.257 67.3948 242.221 67.181C241.766 64.5117 240.756 62.2477 239.202 60.3656L239.193 60.3547C237.657 58.427 235.731 56.9501 233.401 55.9213L233.393 55.9177C231.058 54.8564 228.486 54.3054 225.666 54.2748H225.665C222.962 54.2441 220.546 54.6742 218.404 55.5489C216.256 56.4262 214.58 57.6368 213.344 59.1673L213.339 59.1733C212.126 60.6457 211.523 62.3366 211.523 64.2794C211.523 66.2086 212.073 67.6967 213.114 68.8217C214.237 70.0034 215.618 70.9575 217.27 71.6792C219.021 72.398 220.72 72.9901 222.369 73.4568L222.373 73.4579L235.429 77.2222C236.951 77.6434 238.689 78.2233 240.641 78.9591C242.684 79.7172 244.654 80.7854 246.55 82.1582C248.502 83.5389 250.105 85.3824 251.364 87.6685C252.658 89.9846 253.278 92.8647 253.278 96.2629C253.278 99.6786 252.588 102.749 251.186 105.453C249.826 108.14 247.916 110.397 245.466 112.218L245.46 112.222C243.024 114 240.203 115.342 237.009 116.255C233.813 117.2 230.399 117.67 226.771 117.67C221.816 117.67 217.32 116.828 213.298 115.127Z" fill="white"/>
</svg>
