<svg xmlns="http://www.w3.org/2000/svg" width="114" height="24" viewBox="0 0 114 24" fill="none"><script xmlns=""/><script xmlns="" id="argent-x-extension" data-extension-id="dlcobpjiigpikoobohmabehhmhfoodbb"/>
<g clipPath="url(#clip0_64_62)">
<path d="M19.5761 0.0530327C18.9184 -0.0528718 18.2447 0.00779264 17.6165 0.229479C16.9883 0.451165 16.4257 0.826799 15.9801 1.32203C15.1311 2.26903 14.8671 3.50403 15.0711 4.74003C15.2561 5.85603 15.5011 6.98803 15.5561 8.06203C15.6331 9.68062 15.3859 11.2983 14.8291 12.82C14.3251 14.197 13.6071 15.265 12.0691 15.501C11.9551 15.519 11.5401 15.532 11.4221 15.539C11.2196 15.5392 11.0172 15.5272 10.8161 15.503C9.27811 15.266 8.55411 14.198 8.05211 12.813C7.4952 11.291 7.24802 9.67295 7.32511 8.05403C7.38011 6.98403 7.62511 5.85103 7.80911 4.73303C8.01311 3.49603 7.74911 2.26203 6.90111 1.31303C6.45445 0.817676 5.8903 0.442709 5.26064 0.222687C4.63098 0.00266437 3.95607 -0.0553352 3.29811 0.0540327C1.32511 0.373033 0.0121065 2.11903 0.000106478 3.95003C-0.00518805 4.65543 0.187064 5.34823 0.555106 5.95003C1.16911 6.96003 2.17611 7.69503 3.05511 8.46003C3.63711 8.97003 4.64411 10.42 5.13711 11.992C5.43611 12.944 5.67911 13.908 5.92011 14.882C6.25811 16.239 6.72411 19.236 7.03011 20.596C7.64111 23.32 9.51311 23.937 11.3881 24H11.4541C13.3291 23.937 15.2311 23.319 15.8431 20.595C16.1481 19.235 16.6121 16.236 16.9531 14.881C17.1951 13.912 17.4371 12.943 17.7361 11.991C18.2291 10.419 19.2361 8.96403 19.8171 8.45803C20.6971 7.69203 21.7031 6.95803 22.3171 5.94803C22.6854 5.34632 22.878 4.65352 22.8731 3.94803C22.8631 2.11403 21.5531 0.368033 19.5761 0.0530327ZM44.3221 3.32003L38.0371 20.003H34.8581L28.5501 3.32003H31.4881L36.4481 17.194L41.4331 3.32003H44.3231H44.3221ZM58.7781 13.066C58.7781 13.562 58.7461 14.01 58.6811 14.41H48.5441C48.6241 15.466 49.0171 16.314 49.7241 16.954C50.4301 17.594 51.2971 17.914 52.3241 17.914C53.8011 17.914 54.8441 17.298 55.4541 16.066H58.4171C58.0151 17.282 57.2851 18.282 56.2251 19.066C55.1821 19.835 53.8821 20.219 52.3251 20.219C51.0561 20.219 49.9161 19.939 48.9051 19.379C47.915 18.8084 47.0991 17.9786 46.5451 16.979C45.9831 15.939 45.7021 14.739 45.7021 13.378C45.7021 12.018 45.9751 10.825 46.5221 9.80103C47.0831 8.76103 47.8621 7.96103 48.8571 7.40103C49.8681 6.84103 51.0241 6.56103 52.3241 6.56103C53.5771 6.56103 54.6921 6.83303 55.6721 7.37703C56.6397 7.90965 57.4337 8.70948 57.9591 9.68103C58.5051 10.658 58.7781 11.786 58.7781 13.066ZM55.9121 12.202C55.8961 11.194 55.5351 10.385 54.8291 9.77703C54.1221 9.16903 53.2471 8.86503 52.2041 8.86503C51.2571 8.86503 50.4461 9.16903 49.7721 9.77703C49.0981 10.369 48.6961 11.177 48.5681 12.202H55.9121ZM68.1731 6.56003C69.2171 6.56003 70.1481 6.77703 70.9671 7.20903C71.7968 7.63639 72.4769 8.30603 72.9171 9.12903C73.3831 9.97703 73.6151 11.002 73.6151 12.202V20.002H70.8951V12.61C70.8951 11.426 70.5981 10.522 70.0041 9.89703C69.4091 9.25703 68.5991 8.93703 67.5711 8.93703C66.5441 8.93703 65.7251 9.25703 65.1151 9.89703C64.5211 10.521 64.2251 11.426 64.2251 12.61V20.003H61.4791V6.77703H64.2241V8.28903C64.6857 7.736 65.2717 7.30011 65.9341 7.01703C66.6415 6.71274 67.404 6.55751 68.1741 6.56103L68.1731 6.56003ZM82.8721 20.219C81.6201 20.219 80.4881 19.939 79.4771 19.379C78.4765 18.8139 77.6516 17.9833 77.0931 16.979C76.5151 15.939 76.2261 14.739 76.2261 13.378C76.2261 12.034 76.5231 10.841 77.1171 9.80103C77.6846 8.78721 78.5279 7.95504 79.5491 7.40103C80.5761 6.84103 81.7241 6.56103 82.9931 6.56103C84.2611 6.56103 85.4091 6.84103 86.4361 7.40103C87.4574 7.95504 88.3006 8.78721 88.8681 9.80103C89.4621 10.841 89.7581 12.034 89.7581 13.378C89.7581 14.722 89.4541 15.914 88.8441 16.954C88.2503 17.9788 87.3834 18.8184 86.3401 19.379C85.2961 19.939 84.1401 20.219 82.8721 20.219ZM82.8721 17.842C83.5781 17.842 84.2371 17.674 84.8471 17.338C85.4731 17.002 85.9781 16.498 86.3641 15.826C86.7491 15.154 86.9421 14.338 86.9421 13.378C86.9421 12.418 86.7571 11.61 86.3881 10.953C86.0181 10.281 85.5281 9.77703 84.9181 9.44103C84.3142 9.10661 83.6344 8.93306 82.9441 8.93703C82.2381 8.93703 81.5801 9.10503 80.9701 9.44103C80.3761 9.77703 79.9021 10.281 79.5501 10.953C79.1961 11.61 79.0201 12.418 79.0201 13.378C79.0201 14.802 79.3801 15.906 80.1031 16.69C80.8411 17.458 81.7641 17.842 82.8731 17.842H82.8721ZM108.534 6.56003C109.577 6.56003 110.508 6.77703 111.327 7.20903C112.157 7.63633 112.838 8.30596 113.278 9.12903C113.759 9.97703 114 11.002 114 12.202V20.002H111.279V12.61C111.279 11.426 110.982 10.522 110.388 9.89703C109.794 9.25703 108.983 8.93703 107.956 8.93703C106.929 8.93703 106.11 9.25703 105.5 9.89703C104.906 10.521 104.609 11.426 104.609 12.61V20.003H101.888V12.61C101.888 11.426 101.591 10.522 100.997 9.89703C100.403 9.25703 99.5921 8.93703 98.5651 8.93703C97.5371 8.93703 96.7191 9.25703 96.1091 9.89703C95.5151 10.521 95.2181 11.426 95.2181 12.61V20.003H92.4731V6.77703H95.2181V8.28903C95.6797 7.736 96.2657 7.30011 96.9281 7.01703C97.6263 6.71138 98.381 6.55602 99.1431 6.56103C100.202 6.56103 101.149 6.78503 101.984 7.23303C102.809 7.67069 103.481 8.34866 103.911 9.17703C104.312 8.37703 104.938 7.74503 105.789 7.28103C106.625 6.80487 107.572 6.55659 108.534 6.56103V6.56003Z" fill="white"/>
<path d="M19.5761 0.0530327C18.9184 -0.0528718 18.2447 0.00779264 17.6165 0.229479C16.9883 0.451165 16.4257 0.826799 15.9801 1.32203C15.1311 2.26903 14.8671 3.50403 15.0711 4.74003C15.2561 5.85603 15.5011 6.98803 15.5561 8.06203C15.6331 9.68062 15.3859 11.2983 14.8291 12.82C14.3251 14.197 13.6071 15.265 12.0691 15.501C11.9551 15.519 11.5401 15.532 11.4221 15.539C11.2196 15.5392 11.0172 15.5272 10.8161 15.503C9.27811 15.266 8.55411 14.198 8.05211 12.813C7.4952 11.291 7.24802 9.67295 7.32511 8.05403C7.38011 6.98403 7.62511 5.85103 7.80911 4.73303C8.01311 3.49603 7.74911 2.26203 6.90111 1.31303C6.45445 0.817676 5.8903 0.442709 5.26064 0.222687C4.63098 0.00266437 3.95607 -0.0553352 3.29811 0.0540327C1.32511 0.373033 0.0121065 2.11903 0.000106478 3.95003C-0.00518805 4.65543 0.187064 5.34823 0.555106 5.95003C1.16911 6.96003 2.17611 7.69503 3.05511 8.46003C3.63711 8.97003 4.64411 10.42 5.13711 11.992C5.43611 12.944 5.67911 13.908 5.92011 14.882C6.25811 16.239 6.72411 19.236 7.03011 20.596C7.64111 23.32 9.51311 23.937 11.3881 24H11.4541C13.3291 23.937 15.2311 23.319 15.8431 20.595C16.1481 19.235 16.6121 16.236 16.9531 14.881C17.1951 13.912 17.4371 12.943 17.7361 11.991C18.2291 10.419 19.2361 8.96403 19.8171 8.45803C20.6971 7.69203 21.7031 6.95803 22.3171 5.94803C22.6854 5.34632 22.878 4.65352 22.8731 3.94803C22.8631 2.11403 21.5531 0.368033 19.5761 0.0530327Z" fill="white"/>
</g>
<defs>
<clipPath id="clip0_64_62">
<rect width="114" height="24" fill="white"/>
</clipPath>
</defs>
</svg>