<svg width="800" height="284" viewBox="0 0 800 284" fill="none" xmlns="http://www.w3.org/2000/svg">
<ellipse cx="711.994" cy="33.5" rx="23.4037" ry="22.5" fill="url(#paint0_linear_505_24)"/>
<path d="M734.898 33.5C734.898 45.6319 724.662 55.5 711.994 55.5C699.326 55.5 689.09 45.6319 689.09 33.5C689.09 21.3681 699.326 11.5 711.994 11.5C724.662 11.5 734.898 21.3681 734.898 33.5Z" stroke="url(#paint1_linear_505_24)" stroke-opacity="0.5"/>
<path d="M714.803 33.1339H728.512V33.2385L707.078 45.7908L717.741 37.6318L714.803 33.1339ZM706.752 21V46L695.871 37.6318L706.752 21Z" fill="url(#paint2_linear_505_24)"/>
<ellipse cx="716.154" cy="207.5" rx="23.4037" ry="22.5" fill="url(#paint3_linear_505_24)"/>
<path d="M739.058 207.5C739.058 219.632 728.823 229.5 716.154 229.5C703.486 229.5 693.251 219.632 693.251 207.5C693.251 195.368 703.486 185.5 716.154 185.5C728.823 185.5 739.058 195.368 739.058 207.5Z" stroke="url(#paint4_linear_505_24)" stroke-opacity="0.5"/>
<path d="M716.085 212.584L721.107 220.161L725.746 217.577L719.151 207.583L716.085 212.584Z" fill="url(#paint5_linear_505_24)"/>
<path d="M729.971 214.537L729.967 212.466L722.761 201.676L720.087 206.037L727.044 216.854L729.56 215.453C729.806 215.26 729.956 214.977 729.971 214.672L729.971 214.537Z" fill="url(#paint6_linear_505_24)"/>
<path d="M699.772 216.49L703.324 218.458L715.145 200.233L713.139 200.182C711.429 200.159 709.588 200.586 708.743 201.913L702.03 211.915L699.772 215.25V216.49V216.49Z" fill="url(#paint7_linear_505_24)"/>
<path d="M721.967 200.233L716.68 200.252L704.717 219.229L708.899 221.543L710.036 219.69L721.967 200.233Z" fill="url(#paint8_linear_505_24)"/>
<path d="M732.199 200.207C732.155 199.144 731.556 198.171 730.618 197.604L717.474 190.337C716.546 189.888 715.387 189.887 714.458 190.337C714.348 190.39 701.675 197.456 701.675 197.456C701.5 197.537 701.331 197.633 701.172 197.743C700.335 198.319 699.825 199.216 699.772 200.2V215.251L702.03 211.915L702.01 200.302C702.013 200.26 702.019 200.218 702.026 200.177C702.077 199.903 702.236 199.66 702.475 199.495C702.535 199.454 715.424 192.281 715.465 192.261C715.768 192.115 716.153 192.113 716.456 192.257L729.431 199.431C729.738 199.619 729.93 199.938 729.947 200.287V214.672C729.931 214.977 729.806 215.26 729.559 215.452L727.044 216.853L725.746 217.577L721.107 220.161L716.402 222.782C716.149 222.87 715.853 222.865 715.602 222.767L710.036 219.689L708.898 221.543L713.901 224.312C714.066 224.402 714.213 224.482 714.334 224.548C714.522 224.649 714.649 224.716 714.694 224.737C715.05 224.904 715.561 225 716.022 225C716.445 225 716.857 224.925 717.247 224.779L730.912 217.171C731.696 216.587 732.157 215.706 732.199 214.751V200.207Z" fill="url(#paint9_linear_505_24)"/>
<path fill-rule="evenodd" clip-rule="evenodd" d="M730.034 101.828L729.306 102.645H729.304C729.057 102.905 729.05 103.313 729.29 103.588C729.474 103.793 730.011 104.405 730.011 104.405L734.839 99H732.557L730.034 101.828ZM728.748 105.095C727.284 103.652 723.241 99 723.241 99H720.972L727.928 106.749C727.928 106.749 727.949 106.733 728.727 105.854C728.938 105.615 728.982 105.319 728.748 105.095ZM725.801 113.779L726.528 112.962H726.53C726.778 112.702 726.785 112.295 726.544 112.019C726.361 111.815 725.823 111.202 725.823 111.202L720.995 116.607H723.277L725.801 113.779ZM719.128 116.606C719.128 116.606 724.656 110.401 726.621 108.211C726.827 107.98 726.79 107.621 726.6 107.374L719.093 99H716.732L724.195 107.302C724.436 107.562 724.436 107.965 724.195 108.231L716.675 116.606H719.128ZM727.462 110.892L732.559 116.606L732.557 116.607H735.017L729.503 110.443C729.262 110.176 729.269 109.76 729.517 109.5L739.074 99H736.72L727.221 109.639C726.973 109.899 726.966 110.315 727.207 110.582L727.462 110.892ZM731.412 110.447C732.784 111.989 736.898 116.606 736.898 116.606V116.604H739.132L732.114 108.794L731.477 109.47C731.391 109.562 731.299 109.696 731.257 109.815C731.199 110.033 731.257 110.271 731.412 110.447Z" fill="url(#paint10_linear_505_24)"/>
<ellipse cx="727.596" cy="107.5" rx="23.4037" ry="22.5" fill="url(#paint11_linear_505_24)"/>
<path d="M750.5 107.5C750.5 119.632 740.264 129.5 727.596 129.5C714.928 129.5 704.693 119.632 704.693 107.5C704.693 95.3681 714.928 85.5 727.596 85.5C740.264 85.5 750.5 95.3681 750.5 107.5Z" stroke="url(#paint12_linear_505_24)" stroke-opacity="0.5"/>
<ellipse cx="653.745" cy="79.5" rx="23.4037" ry="22.5" fill="url(#paint13_linear_505_24)"/>
<path d="M676.648 79.5C676.648 91.6319 666.413 101.5 653.744 101.5C641.076 101.5 630.841 91.6319 630.841 79.5C630.841 67.3681 641.076 57.5 653.744 57.5C666.413 57.5 676.648 67.3681 676.648 79.5Z" stroke="url(#paint14_linear_505_24)" stroke-opacity="0.5"/>
<path d="M647.587 84.8342C646.396 84.883 645.221 84.5586 644.239 83.9098C643.815 83.5982 643.476 83.1919 643.252 82.7261C643.027 82.2603 642.924 81.7489 642.952 81.2363C642.957 80.9375 642.986 80.6396 643.038 80.3451C643.186 79.5516 643.398 78.5999 643.673 77.4898C644.451 74.4639 646.46 72.9509 649.698 72.9509C650.51 72.9381 651.316 73.0841 652.067 73.3801C652.734 73.6314 653.308 74.0681 653.715 74.6344C654.126 75.218 654.336 75.9108 654.316 76.6152C654.31 76.9084 654.281 77.2007 654.23 77.4898C654.058 78.4691 653.852 79.4208 653.612 80.3451C653.212 81.8524 652.519 82.9801 651.535 83.7284C650.551 84.4656 649.235 84.8342 647.587 84.8342ZM647.827 82.4574C648.422 82.4732 649.002 82.2796 649.459 81.9128C649.963 81.473 650.306 80.8884 650.437 80.2459C650.7 79.212 650.9 78.3098 651.037 77.5392C651.083 77.3052 651.106 77.0675 651.106 76.8294C651.106 75.828 650.562 75.3274 649.475 75.3276C648.876 75.3138 648.291 75.507 647.827 75.8722C647.332 76.3167 646.995 76.9 646.866 77.5392C646.659 78.2764 646.454 79.1786 646.248 80.2459C646.201 80.4742 646.178 80.7064 646.179 80.9391C646.179 81.9513 646.729 82.4574 647.827 82.4574Z" fill="url(#paint15_linear_505_24)"/>
<path d="M655.108 84.6693C655.054 84.6724 654.999 84.6636 654.949 84.6436C654.898 84.6236 654.853 84.593 654.816 84.5539C654.759 84.4652 654.741 84.3584 654.765 84.2567L657.134 73.5286C657.155 73.4103 657.222 73.304 657.321 73.2315C657.413 73.1585 657.529 73.1178 657.648 73.1161H662.214C663.29 73.0653 664.355 73.3301 665.27 73.8752C665.647 74.1121 665.952 74.4392 666.157 74.8241C666.361 75.2091 666.458 75.6387 666.438 76.0706C666.436 76.3594 666.402 76.6473 666.335 76.9289C666.145 78.0409 665.526 79.0431 664.601 79.7348C663.742 80.34 662.564 80.6426 661.064 80.6426H658.747L657.957 84.2571C657.936 84.3754 657.869 84.4817 657.77 84.5543C657.678 84.6272 657.563 84.6679 657.444 84.6697L655.108 84.6693ZM661.185 78.3643C661.635 78.3739 662.076 78.2405 662.439 77.9849C662.812 77.7212 663.07 77.3327 663.16 76.8957C663.192 76.7324 663.209 76.5667 663.211 76.4005C663.221 76.2663 663.2 76.1316 663.149 76.0061C663.099 75.8806 663.02 75.7673 662.919 75.6742C662.633 75.4708 662.278 75.3767 661.924 75.4102H659.864L659.211 78.3643H661.185Z" fill="url(#paint16_linear_505_24)"/>
<path fill-rule="evenodd" clip-rule="evenodd" d="M614.646 175.454L614.196 174.119C614.105 173.847 613.882 173.636 613.598 173.552L612.202 173.14C612.009 173.083 612.008 172.821 612.199 172.761L613.589 172.329C613.871 172.241 614.091 172.026 614.178 171.754L614.607 170.412C614.666 170.227 614.938 170.225 615.001 170.409L615.45 171.745C615.542 172.016 615.765 172.227 616.048 172.311L617.444 172.723C617.637 172.781 617.639 173.042 617.447 173.102L616.058 173.534C615.776 173.622 615.556 173.837 615.468 174.11L615.04 175.451C614.981 175.637 614.708 175.639 614.646 175.454Z" fill="url(#paint17_linear_505_24)"/>
<path fill-rule="evenodd" clip-rule="evenodd" d="M592.722 175.036C591.388 176.406 590.556 178.015 590.342 179.73C590.342 179.73 590.342 179.73 590.342 179.73C590.342 179.73 590.342 179.73 590.342 179.73C590.8 179.745 591.189 179.817 591.571 179.937C591.945 180.043 592.292 180.178 592.62 180.323C593.279 180.624 593.86 180.962 594.424 181.328C595.483 182.01 596.455 182.791 597.431 183.575C597.484 183.618 597.538 183.661 597.591 183.704C597.848 183.898 598.102 184.111 598.357 184.325C598.615 184.541 598.873 184.758 599.135 184.955L599.909 185.608C600.187 185.833 600.388 185.994 600.764 186.277C602.124 187.302 603.658 188.23 605.434 188.936C607.202 189.633 609.281 190.096 611.467 189.954C613.652 189.829 615.797 189.001 617.36 187.813C618.953 186.635 620.045 185.18 620.831 183.688C621.597 182.178 622.088 180.615 622.242 178.948C622.242 178.948 622.242 178.948 622.242 178.948C621.88 179.101 621.531 179.254 621.192 179.404C620.748 179.6 620.32 179.788 619.902 179.958C619.16 180.25 618.465 180.52 617.799 180.667C616.456 180.992 615.441 180.913 614.637 180.607C613.826 180.326 612.977 179.847 611.98 179.192C610.993 178.537 609.924 177.744 608.805 176.887L607.08 175.579L605.975 174.774C605.56 174.507 605.144 174.242 604.699 173.999C603.808 173.517 602.82 173.107 601.766 172.826C600.707 172.544 599.555 172.422 598.42 172.495C596.12 172.633 594.048 173.679 592.722 175.036Z" fill="url(#paint18_linear_505_24)"/>
<path fill-rule="evenodd" clip-rule="evenodd" d="M597.41 188.578C597.41 189.085 596.982 189.497 596.454 189.497C595.926 189.497 595.498 189.085 595.498 188.578C595.498 188.07 595.926 187.658 596.454 187.658C596.982 187.658 597.41 188.07 597.41 188.578Z" fill="url(#paint19_linear_505_24)"/>
<path fill-rule="evenodd" clip-rule="evenodd" d="M597.41 188.578C597.41 189.085 596.982 189.497 596.454 189.497C595.926 189.497 595.498 189.085 595.498 188.578C595.498 188.07 595.926 187.658 596.454 187.658C596.982 187.658 597.41 188.07 597.41 188.578Z" fill="url(#paint20_linear_505_24)"/>
<ellipse cx="606.937" cy="180.5" rx="23.4037" ry="22.5" fill="url(#paint21_linear_505_24)"/>
<path d="M629.841 180.5C629.841 192.632 619.605 202.5 606.937 202.5C594.269 202.5 584.033 192.632 584.033 180.5C584.033 168.368 594.269 158.5 606.937 158.5C619.605 158.5 629.841 168.368 629.841 180.5Z" stroke="url(#paint22_linear_505_24)" stroke-opacity="0.5"/>
<path fill-rule="evenodd" clip-rule="evenodd" d="M790.185 148.501L782.284 140.913V146.47L774.438 152.035L782.284 152.04V156.09L790.185 148.501Z" fill="url(#paint23_linear_505_24)"/>
<path fill-rule="evenodd" clip-rule="evenodd" d="M762.33 148.499L770.232 156.087V150.588L778.02 145.02L770.232 145.015V140.91L762.33 148.499Z" fill="url(#paint24_linear_505_24)"/>
<ellipse cx="776.404" cy="148.5" rx="23.4037" ry="22.5" fill="url(#paint25_linear_505_24)"/>
<path d="M799.307 148.5C799.307 160.632 789.072 170.5 776.404 170.5C763.736 170.5 753.5 160.632 753.5 148.5C753.5 136.368 763.736 126.5 776.404 126.5C789.072 126.5 799.307 136.368 799.307 148.5Z" stroke="url(#paint26_linear_505_24)" stroke-opacity="0.5"/>
<ellipse cx="109.737" cy="22.5" rx="23.4037" ry="22.5" fill="url(#paint27_linear_505_24)"/>
<path d="M132.641 22.5C132.641 34.6319 122.406 44.5 109.737 44.5C97.0694 44.5 86.8337 34.6319 86.8337 22.5C86.8337 10.3681 97.0694 0.5 109.737 0.5C122.406 0.5 132.641 10.3681 132.641 22.5Z" stroke="url(#paint28_linear_505_24)" stroke-opacity="0.5"/>
<path d="M109.132 29.4025C105.248 29.4025 102.098 26.3838 102.098 22.6525C102.098 18.9213 105.248 15.9025 109.132 15.9025C112.614 15.9025 115.506 18.34 116.06 21.5275H123.145C122.547 14.5975 116.502 9.15254 109.128 9.15254C101.36 9.15254 95.0605 15.1975 95.0605 22.6525C95.0605 30.1075 101.36 36.1525 109.128 36.1525C116.502 36.1525 122.547 30.7075 123.145 23.7775H116.057C115.498 26.965 112.614 29.4025 109.132 29.4025Z" fill="url(#paint29_linear_505_24)"/>
<path d="M46.037 178.346L51.4915 173.104L56.9483 178.35L60.1203 175.298L51.4915 167L42.8628 175.296L46.037 178.346Z" fill="url(#paint30_linear_505_24)"/>
<path d="M37.4459 180.502L40.6179 177.45L43.7922 180.502L40.6179 183.552L37.4459 180.502Z" fill="url(#paint31_linear_505_24)"/>
<path d="M46.037 182.656L51.4915 187.9L56.9483 182.654L60.1225 185.702L51.4938 194L42.8628 185.708L46.037 182.656Z" fill="url(#paint32_linear_505_24)"/>
<path d="M59.1842 180.502L62.3562 177.45L65.5304 180.5L62.3562 183.554L59.1842 180.502Z" fill="url(#paint33_linear_505_24)"/>
<path d="M54.7101 180.5L51.4915 177.403L49.1114 179.692L48.8364 179.954L48.2729 180.496L51.4915 183.588L54.7101 180.502V180.5Z" fill="url(#paint34_linear_505_24)"/>
<ellipse cx="51.4882" cy="180.5" rx="23.4037" ry="22.5" fill="url(#paint35_linear_505_24)"/>
<path d="M74.392 180.5C74.392 192.632 64.1563 202.5 51.4882 202.5C38.8201 202.5 28.5845 192.632 28.5845 180.5C28.5845 168.368 38.8201 158.5 51.4882 158.5C64.1563 158.5 74.392 168.368 74.392 180.5Z" stroke="url(#paint36_linear_505_24)" stroke-opacity="0.5"/>
<path d="M22.6938 66L10.4016 72.75V86.25L22.6938 93L34.9861 86.25V72.75L22.6938 66Z" stroke="url(#paint37_linear_505_24)"/>
<mask id="path-39-inside-1_505_24" fill="white">
<path d="M27.4878 87.4706H25.7388L23.645 85.6425V84.705L25.8127 82.7362V79.6191L28.6456 77.8612L31.8726 80.1816L27.4878 87.4706ZM20.2455 82.5487L20.5657 79.6191L19.5065 76.9941H25.7635L24.7288 79.6191L25.0245 82.5487H20.2455ZM21.6743 85.6425L19.5804 87.4941H17.8068L13.3973 80.1816L16.649 77.8847L19.5065 79.6191V82.7362L21.6743 84.705V85.6425ZM17.7821 71.58H27.4632L28.621 76.2675H16.649L17.7821 71.58Z"/>
</mask>
<path d="M27.4878 87.4706H25.7388L23.645 85.6425V84.705L25.8127 82.7362V79.6191L28.6456 77.8612L31.8726 80.1816L27.4878 87.4706ZM20.2455 82.5487L20.5657 79.6191L19.5065 76.9941H25.7635L24.7288 79.6191L25.0245 82.5487H20.2455ZM21.6743 85.6425L19.5804 87.4941H17.8068L13.3973 80.1816L16.649 77.8847L19.5065 79.6191V82.7362L21.6743 84.705V85.6425ZM17.7821 71.58H27.4632L28.621 76.2675H16.649L17.7821 71.58Z" fill="url(#paint38_linear_505_24)"/>
<path d="M27.4878 87.4706V124.471H48.4089L59.1932 106.543L27.4878 87.4706ZM25.7388 87.4706L1.40441 115.342L11.8595 124.471H25.7388V87.4706ZM23.645 85.6425H-13.355V102.456L-0.68946 113.514L23.645 85.6425ZM23.645 84.705L-1.23048 57.315L-13.355 68.3265V84.705H23.645ZM25.8127 82.7362L50.6882 110.126L62.8127 99.1148V82.7362H25.8127ZM25.8127 79.6191L6.30452 48.1798L-11.1873 59.0335V79.6191H25.8127ZM28.6456 77.8612L50.2456 47.8206L30.1591 33.3779L9.1374 46.4219L28.6456 77.8612ZM31.8726 80.1816L63.578 99.2542L81.1508 70.0423L53.4727 50.1409L31.8726 80.1816ZM20.2455 82.5487L-16.5354 78.5283L-21.0193 119.549H20.2455V82.5487ZM20.5657 79.6191L57.3467 83.6395L58.357 74.3962L54.8775 65.7735L20.5657 79.6191ZM19.5065 76.9941V39.9941H-35.3227L-14.8053 90.8396L19.5065 76.9941ZM25.7635 76.9941L60.1862 90.5614L80.1168 39.9941L25.7635 39.9941V76.9941ZM24.7288 79.6191L-9.69391 66.0517L-12.9854 74.4027L-12.0842 83.3335L24.7288 79.6191ZM25.0245 82.5487V119.549H65.9456L61.8375 78.8343L25.0245 82.5487ZM21.6743 85.6425L46.1843 113.36L58.6743 102.315V85.6425H21.6743ZM19.5804 87.4941V124.494H33.5931L44.0904 115.212L19.5804 87.4941ZM17.8068 87.4941L-13.8785 106.6L-3.08849 124.494H17.8068V87.4941ZM13.3973 80.1816L-7.94979 49.9607L-36.0591 69.8163L-18.2879 99.2877L13.3973 80.1816ZM16.649 77.8847L35.8468 46.2549L15.1125 33.6702L-4.69814 47.6638L16.649 77.8847ZM19.5065 79.6191H56.5065V58.7943L38.7043 47.9892L19.5065 79.6191ZM19.5065 82.7362H-17.4935V99.1148L-5.36896 110.126L19.5065 82.7362ZM21.6743 84.705H58.6743V68.3265L46.5497 57.315L21.6743 84.705ZM17.7821 71.58V34.58H-11.3393L-18.1819 62.8861L17.7821 71.58ZM27.4632 71.58L63.3837 62.7079L56.4363 34.58H27.4632V71.58ZM28.621 76.2675V113.268H75.8716L64.5415 67.3954L28.621 76.2675ZM16.649 76.2675L-19.3151 67.5736L-30.3611 113.268H16.649V76.2675ZM27.4878 50.4706H25.7388V124.471H27.4878V50.4706ZM50.0733 59.5988L47.9794 57.7707L-0.68946 113.514L1.40441 115.342L50.0733 59.5988ZM60.645 85.6425V84.705H-13.355V85.6425H60.645ZM48.5204 112.095L50.6882 110.126L0.937284 55.3462L-1.23048 57.315L48.5204 112.095ZM62.8127 82.7362V79.6191H-11.1873V82.7362H62.8127ZM45.3209 111.058L48.1538 109.301L9.1374 46.4219L6.30452 48.1798L45.3209 111.058ZM7.04558 107.902L10.2726 110.222L53.4727 50.1409L50.2456 47.8206L7.04558 107.902ZM0.167206 61.1089L-4.21759 68.398L59.1932 106.543L63.578 99.2542L0.167206 61.1089ZM57.0264 86.5692L57.3467 83.6395L-16.2152 75.5986L-16.5354 78.5283L57.0264 86.5692ZM54.8775 65.7735L53.8183 63.1485L-14.8053 90.8396L-13.746 93.4647L54.8775 65.7735ZM19.5065 113.994H25.7635V39.9941H19.5065V113.994ZM-8.6593 63.4267L-9.69391 66.0517L59.1516 93.1864L60.1862 90.5614L-8.6593 63.4267ZM-12.0842 83.3335L-11.7886 86.2632L61.8375 78.8343L61.5419 75.9046L-12.0842 83.3335ZM-2.83572 57.925L-4.92958 59.7765L44.0904 115.212L46.1843 113.36L-2.83572 57.925ZM19.5804 50.4941H17.8068V124.494H19.5804V50.4941ZM49.492 68.3879L45.0826 61.0754L-18.2879 99.2877L-13.8785 106.6L49.492 68.3879ZM34.7445 110.402L37.9961 108.106L-4.69814 47.6638L-7.94979 49.9607L34.7445 110.402ZM-2.5488 109.515L0.308716 111.249L38.7043 47.9892L35.8468 46.2549L-2.5488 109.515ZM-17.4935 79.6191V82.7362H56.5065V79.6191H-17.4935ZM-5.36896 110.126L-3.20119 112.095L46.5497 57.315L44.382 55.3463L-5.36896 110.126ZM-15.3257 84.705V85.6425H58.6743V84.705H-15.3257ZM17.7821 108.58H27.4632V34.58H17.7821V108.58ZM-8.45735 80.4521L-7.29956 85.1396L64.5415 67.3954L63.3837 62.7079L-8.45735 80.4521ZM28.621 39.2675H16.649V113.268H28.621V39.2675ZM52.6131 84.9614L53.7462 80.2739L-18.1819 62.8861L-19.3151 67.5736L52.6131 84.9614ZM25.0245 45.5487H20.2455V119.549H25.0245V45.5487Z" fill="url(#paint39_linear_505_24)" mask="url(#path-39-inside-1_505_24)"/>
<ellipse cx="23.4037" cy="79.5" rx="23.4037" ry="22.5" fill="url(#paint40_linear_505_24)"/>
<path d="M46.3075 79.5C46.3075 91.6319 36.0719 101.5 23.4037 101.5C10.7356 101.5 0.5 91.6319 0.5 79.5C0.5 67.3681 10.7356 57.5 23.4037 57.5C36.0719 57.5 46.3075 67.3681 46.3075 79.5Z" stroke="url(#paint41_linear_505_24)" stroke-opacity="0.5"/>
<path d="M35.0028 250.028C37.4366 249.877 39.9117 250.345 42.098 251.392C45.3239 252.915 47.8898 255.667 49.1026 258.911C49.6388 260.347 49.9276 261.862 49.9276 263.385V269.04C49.9276 269.27 49.9358 269.508 49.8781 269.73C49.7461 270.301 49.3253 270.801 48.7643 271.047C48.3765 271.221 47.931 271.245 47.5185 271.182C46.6192 271.023 45.9262 270.214 45.9179 269.341C45.9097 267.588 45.9179 265.836 45.9179 264.075C45.9344 263.575 45.9344 263.044 45.6539 262.607C45.2002 261.798 44.0946 261.41 43.2118 261.759C42.461 262.012 41.9165 262.742 41.9083 263.512C41.9 265.296 41.9083 267.073 41.9083 268.85C41.9083 269.183 41.9248 269.524 41.8258 269.841C41.636 270.468 41.0915 270.975 40.4397 271.15C39.5817 271.38 38.5999 271.015 38.1626 270.254C37.8656 269.793 37.8904 269.238 37.8986 268.731C37.8904 266.962 37.9069 265.193 37.8904 263.424C37.8739 262.528 37.1066 261.719 36.1743 261.6C35.572 261.513 34.9368 261.703 34.4995 262.116C34.1035 262.472 33.8807 262.988 33.8807 263.512V268.667C33.8725 269.103 33.9302 269.548 33.757 269.952C33.493 270.69 32.7174 271.229 31.9006 271.205C31.0674 271.253 30.2506 270.698 29.9866 269.944C29.8381 269.571 29.8711 269.175 29.8711 268.778C29.8711 267.002 29.8793 265.225 29.8711 263.44C29.8628 262.56 29.1533 261.759 28.254 261.6C27.4455 261.433 26.5462 261.83 26.1337 262.536C25.9604 262.829 25.8697 263.17 25.8697 263.504V269.278C25.8779 269.841 25.6057 270.396 25.1601 270.753C24.4836 271.324 23.3863 271.356 22.6685 270.833C22.1488 270.491 21.8435 269.912 21.8435 269.31V263.464C21.8518 261.251 22.4293 259.046 23.5266 257.103C24.4259 255.516 25.6552 254.097 27.132 252.97C29.3595 251.233 32.1482 250.194 35.0028 250.028Z" fill="url(#paint42_linear_505_24)"/>
<ellipse cx="35.8857" cy="261.5" rx="23.4037" ry="22.5" fill="url(#paint43_linear_505_24)"/>
<path d="M58.7894 261.5C58.7894 273.632 48.5538 283.5 35.8857 283.5C23.2175 283.5 12.9819 273.632 12.9819 261.5C12.9819 249.368 23.2175 239.5 35.8857 239.5C48.5538 239.5 58.7894 249.368 58.7894 261.5Z" stroke="url(#paint44_linear_505_24)" stroke-opacity="0.5"/>
<ellipse cx="98.2957" cy="117.5" rx="23.4037" ry="22.5" fill="url(#paint45_linear_505_24)"/>
<path d="M121.199 117.5C121.199 129.632 110.964 139.5 98.2957 139.5C85.6276 139.5 75.392 129.632 75.392 117.5C75.392 105.368 85.6276 95.5 98.2957 95.5C110.964 95.5 121.199 105.368 121.199 117.5Z" stroke="url(#paint46_linear_505_24)" stroke-opacity="0.5"/>
<path fill-rule="evenodd" clip-rule="evenodd" d="M93.8397 117.503L101.542 124.908L106.403 120.234C107.272 119.482 108.602 119.515 109.429 120.311C110.257 121.106 110.291 122.384 109.509 123.22L103.093 129.389C102.231 130.204 100.849 130.204 99.9876 129.389L90.7317 120.488V125.779C90.7317 126.946 89.7472 127.893 88.5327 127.893C87.3183 127.893 86.3337 126.946 86.3337 125.779V109.22C86.3337 108.052 87.3183 107.106 88.5327 107.106C89.7472 107.106 90.7317 108.052 90.7317 109.22V114.51L99.9864 105.612C100.848 104.796 102.231 104.796 103.092 105.612L109.512 111.779C110.295 112.615 110.26 113.894 109.433 114.689C108.606 115.484 107.276 115.517 106.407 114.765L101.545 110.091L93.8397 117.503ZM101.545 115.386C100.655 115.386 99.8516 115.901 99.5105 116.692C99.1694 117.483 99.3574 118.393 99.9869 118.999C100.616 119.604 101.563 119.785 102.386 119.458C103.209 119.13 103.745 118.359 103.745 117.503C103.746 116.941 103.514 116.403 103.101 116.006C102.689 115.609 102.129 115.385 101.545 115.385V115.386Z" fill="url(#paint47_linear_505_24)"/>
<path d="M110.972 23H180.143L223.83 64H264.917H499.994H568.645H596.21L614.933 51L634.176 37.5H687.224" stroke="url(#paint48_linear_505_24)" stroke-opacity="0.4"/>
<path d="M34 81H110.264H248.669H461.454H488.288H524.323H630.015" stroke="url(#paint49_linear_505_24)" stroke-opacity="0.4"/>
<path d="M125.535 119.5H176.669L210.615 97H250.218H505.942L543.282 126H646.817L675.105 110.5H702.827" stroke="url(#paint50_linear_505_24)" stroke-opacity="0.4"/>
<path d="M145.715 180L163.144 163.754H207.569H251.863H550.677L574.355 148H649.079H761.715" stroke="url(#paint51_linear_505_24)" stroke-opacity="0.4"/>
<path d="M584.248 179H199.337H146.497H126.683H78.7272" stroke="url(#paint52_linear_505_24)" stroke-opacity="0.4"/>
<path d="M131.238 269.577H154.668L178.643 255.16V231.297L217.33 196H241.85H488.141H530.642L572.599 229.806H624.363L665.23 212.406H691.385M131.238 269.577L117.071 255.16L81.1077 240.743H44.6001M131.238 269.577L117.071 283H40.241" stroke="url(#paint53_linear_505_24)" stroke-opacity="0.4"/>
<defs>
<linearGradient id="paint0_linear_505_24" x1="711.994" y1="11" x2="711.994" y2="56" gradientUnits="userSpaceOnUse">
<stop stop-color="#F5FAFF" stop-opacity="0.08"/>
<stop offset="1" stop-color="#F4F9FF" stop-opacity="0.06"/>
</linearGradient>
<linearGradient id="paint1_linear_505_24" x1="711.994" y1="11" x2="711.994" y2="56" gradientUnits="userSpaceOnUse">
<stop stop-color="white"/>
<stop offset="1" stop-color="white" stop-opacity="0.08"/>
</linearGradient>
<linearGradient id="paint2_linear_505_24" x1="712.192" y1="21" x2="712.192" y2="46" gradientUnits="userSpaceOnUse">
<stop stop-color="white"/>
<stop offset="1" stop-color="white" stop-opacity="0.56"/>
</linearGradient>
<linearGradient id="paint3_linear_505_24" x1="716.154" y1="185" x2="716.154" y2="230" gradientUnits="userSpaceOnUse">
<stop stop-color="#F5FAFF" stop-opacity="0.08"/>
<stop offset="1" stop-color="#F4F9FF" stop-opacity="0.06"/>
</linearGradient>
<linearGradient id="paint4_linear_505_24" x1="716.154" y1="185" x2="716.154" y2="230" gradientUnits="userSpaceOnUse">
<stop stop-color="white"/>
<stop offset="1" stop-color="white" stop-opacity="0.08"/>
</linearGradient>
<linearGradient id="paint5_linear_505_24" x1="720.916" y1="207.583" x2="720.916" y2="220.161" gradientUnits="userSpaceOnUse">
<stop stop-color="white"/>
<stop offset="1" stop-color="white" stop-opacity="0.56"/>
</linearGradient>
<linearGradient id="paint6_linear_505_24" x1="725.029" y1="201.676" x2="725.029" y2="216.854" gradientUnits="userSpaceOnUse">
<stop stop-color="white"/>
<stop offset="1" stop-color="white" stop-opacity="0.56"/>
</linearGradient>
<linearGradient id="paint7_linear_505_24" x1="707.458" y1="200.181" x2="707.458" y2="218.458" gradientUnits="userSpaceOnUse">
<stop stop-color="white"/>
<stop offset="1" stop-color="white" stop-opacity="0.56"/>
</linearGradient>
<linearGradient id="paint8_linear_505_24" x1="713.342" y1="200.233" x2="713.342" y2="221.543" gradientUnits="userSpaceOnUse">
<stop stop-color="white"/>
<stop offset="1" stop-color="white" stop-opacity="0.56"/>
</linearGradient>
<linearGradient id="paint9_linear_505_24" x1="715.985" y1="190" x2="715.985" y2="225" gradientUnits="userSpaceOnUse">
<stop stop-color="white"/>
<stop offset="1" stop-color="white" stop-opacity="0.56"/>
</linearGradient>
<linearGradient id="paint10_linear_505_24" x1="727.903" y1="99" x2="727.903" y2="116.607" gradientUnits="userSpaceOnUse">
<stop stop-color="white"/>
<stop offset="1" stop-color="white" stop-opacity="0.56"/>
</linearGradient>
<linearGradient id="paint11_linear_505_24" x1="727.596" y1="85" x2="727.596" y2="130" gradientUnits="userSpaceOnUse">
<stop stop-color="#F5FAFF" stop-opacity="0.08"/>
<stop offset="1" stop-color="#F4F9FF" stop-opacity="0.06"/>
</linearGradient>
<linearGradient id="paint12_linear_505_24" x1="727.596" y1="85" x2="727.596" y2="130" gradientUnits="userSpaceOnUse">
<stop stop-color="white"/>
<stop offset="1" stop-color="white" stop-opacity="0.08"/>
</linearGradient>
<linearGradient id="paint13_linear_505_24" x1="653.744" y1="57" x2="653.744" y2="102" gradientUnits="userSpaceOnUse">
<stop stop-color="#F5FAFF" stop-opacity="0.08"/>
<stop offset="1" stop-color="#F4F9FF" stop-opacity="0.06"/>
</linearGradient>
<linearGradient id="paint14_linear_505_24" x1="653.744" y1="57" x2="653.744" y2="102" gradientUnits="userSpaceOnUse">
<stop stop-color="white"/>
<stop offset="1" stop-color="white" stop-opacity="0.08"/>
</linearGradient>
<linearGradient id="paint15_linear_505_24" x1="648.632" y1="72.9501" x2="648.632" y2="84.839" gradientUnits="userSpaceOnUse">
<stop stop-color="white"/>
<stop offset="1" stop-color="white" stop-opacity="0.56"/>
</linearGradient>
<linearGradient id="paint16_linear_505_24" x1="660.598" y1="73.1099" x2="660.598" y2="84.6699" gradientUnits="userSpaceOnUse">
<stop stop-color="white"/>
<stop offset="1" stop-color="white" stop-opacity="0.56"/>
</linearGradient>
<linearGradient id="paint17_linear_505_24" x1="614.823" y1="170.272" x2="614.823" y2="175.592" gradientUnits="userSpaceOnUse">
<stop stop-color="white"/>
<stop offset="1" stop-color="white" stop-opacity="0.56"/>
</linearGradient>
<linearGradient id="paint18_linear_505_24" x1="606.292" y1="172.474" x2="606.292" y2="189.979" gradientUnits="userSpaceOnUse">
<stop stop-color="white"/>
<stop offset="1" stop-color="white" stop-opacity="0.56"/>
</linearGradient>
<linearGradient id="paint19_linear_505_24" x1="596.454" y1="187.658" x2="596.454" y2="189.497" gradientUnits="userSpaceOnUse">
<stop stop-color="white"/>
<stop offset="1" stop-color="white" stop-opacity="0.56"/>
</linearGradient>
<linearGradient id="paint20_linear_505_24" x1="596.454" y1="187.658" x2="596.454" y2="189.497" gradientUnits="userSpaceOnUse">
<stop stop-color="white"/>
<stop offset="1" stop-color="white" stop-opacity="0.56"/>
</linearGradient>
<linearGradient id="paint21_linear_505_24" x1="606.937" y1="158" x2="606.937" y2="203" gradientUnits="userSpaceOnUse">
<stop stop-color="#F5FAFF" stop-opacity="0.08"/>
<stop offset="1" stop-color="#F4F9FF" stop-opacity="0.06"/>
</linearGradient>
<linearGradient id="paint22_linear_505_24" x1="606.937" y1="158" x2="606.937" y2="203" gradientUnits="userSpaceOnUse">
<stop stop-color="white"/>
<stop offset="1" stop-color="white" stop-opacity="0.08"/>
</linearGradient>
<linearGradient id="paint23_linear_505_24" x1="782.312" y1="140.913" x2="782.312" y2="156.09" gradientUnits="userSpaceOnUse">
<stop stop-color="white"/>
<stop offset="1" stop-color="white" stop-opacity="0.56"/>
</linearGradient>
<linearGradient id="paint24_linear_505_24" x1="770.175" y1="140.91" x2="770.175" y2="156.087" gradientUnits="userSpaceOnUse">
<stop stop-color="white"/>
<stop offset="1" stop-color="white" stop-opacity="0.56"/>
</linearGradient>
<linearGradient id="paint25_linear_505_24" x1="776.404" y1="126" x2="776.404" y2="171" gradientUnits="userSpaceOnUse">
<stop stop-color="#F5FAFF" stop-opacity="0.08"/>
<stop offset="1" stop-color="#F4F9FF" stop-opacity="0.06"/>
</linearGradient>
<linearGradient id="paint26_linear_505_24" x1="776.404" y1="126" x2="776.404" y2="171" gradientUnits="userSpaceOnUse">
<stop stop-color="white"/>
<stop offset="1" stop-color="white" stop-opacity="0.08"/>
</linearGradient>
<linearGradient id="paint27_linear_505_24" x1="109.737" y1="0" x2="109.737" y2="45" gradientUnits="userSpaceOnUse">
<stop stop-color="#F5FAFF" stop-opacity="0.08"/>
<stop offset="1" stop-color="#F4F9FF" stop-opacity="0.06"/>
</linearGradient>
<linearGradient id="paint28_linear_505_24" x1="109.737" y1="0" x2="109.737" y2="45" gradientUnits="userSpaceOnUse">
<stop stop-color="white"/>
<stop offset="1" stop-color="white" stop-opacity="0.08"/>
</linearGradient>
<linearGradient id="paint29_linear_505_24" x1="109.103" y1="9.15254" x2="109.103" y2="36.1525" gradientUnits="userSpaceOnUse">
<stop stop-color="white"/>
<stop offset="1" stop-color="white" stop-opacity="0.56"/>
</linearGradient>
<linearGradient id="paint30_linear_505_24" x1="51.4915" y1="167" x2="51.4915" y2="178.35" gradientUnits="userSpaceOnUse">
<stop stop-color="white"/>
<stop offset="1" stop-color="white" stop-opacity="0.56"/>
</linearGradient>
<linearGradient id="paint31_linear_505_24" x1="40.619" y1="177.45" x2="40.619" y2="183.552" gradientUnits="userSpaceOnUse">
<stop stop-color="white"/>
<stop offset="1" stop-color="white" stop-opacity="0.56"/>
</linearGradient>
<linearGradient id="paint32_linear_505_24" x1="51.4927" y1="182.654" x2="51.4927" y2="194" gradientUnits="userSpaceOnUse">
<stop stop-color="white"/>
<stop offset="1" stop-color="white" stop-opacity="0.56"/>
</linearGradient>
<linearGradient id="paint33_linear_505_24" x1="62.3573" y1="177.45" x2="62.3573" y2="183.554" gradientUnits="userSpaceOnUse">
<stop stop-color="white"/>
<stop offset="1" stop-color="white" stop-opacity="0.56"/>
</linearGradient>
<linearGradient id="paint34_linear_505_24" x1="51.4915" y1="177.403" x2="51.4915" y2="183.588" gradientUnits="userSpaceOnUse">
<stop stop-color="white"/>
<stop offset="1" stop-color="white" stop-opacity="0.56"/>
</linearGradient>
<linearGradient id="paint35_linear_505_24" x1="51.4882" y1="158" x2="51.4882" y2="203" gradientUnits="userSpaceOnUse">
<stop stop-color="#F5FAFF" stop-opacity="0.08"/>
<stop offset="1" stop-color="#F4F9FF" stop-opacity="0.06"/>
</linearGradient>
<linearGradient id="paint36_linear_505_24" x1="51.4882" y1="158" x2="51.4882" y2="203" gradientUnits="userSpaceOnUse">
<stop stop-color="white"/>
<stop offset="1" stop-color="white" stop-opacity="0.08"/>
</linearGradient>
<linearGradient id="paint37_linear_505_24" x1="22.6938" y1="66" x2="22.6938" y2="93" gradientUnits="userSpaceOnUse">
<stop stop-color="white"/>
<stop offset="1" stop-color="white" stop-opacity="0.56"/>
</linearGradient>
<linearGradient id="paint38_linear_505_24" x1="22.635" y1="71.58" x2="22.635" y2="87.4941" gradientUnits="userSpaceOnUse">
<stop stop-color="white"/>
<stop offset="1" stop-color="white" stop-opacity="0.56"/>
</linearGradient>
<linearGradient id="paint39_linear_505_24" x1="22.635" y1="71.58" x2="22.635" y2="87.4941" gradientUnits="userSpaceOnUse">
<stop stop-color="white"/>
<stop offset="1" stop-color="white" stop-opacity="0.56"/>
</linearGradient>
<linearGradient id="paint40_linear_505_24" x1="23.4037" y1="57" x2="23.4037" y2="102" gradientUnits="userSpaceOnUse">
<stop stop-color="#F5FAFF" stop-opacity="0.08"/>
<stop offset="1" stop-color="#F4F9FF" stop-opacity="0.06"/>
</linearGradient>
<linearGradient id="paint41_linear_505_24" x1="23.4037" y1="57" x2="23.4037" y2="102" gradientUnits="userSpaceOnUse">
<stop stop-color="white"/>
<stop offset="1" stop-color="white" stop-opacity="0.08"/>
</linearGradient>
<linearGradient id="paint42_linear_505_24" x1="35.8857" y1="250" x2="35.8857" y2="271.218" gradientUnits="userSpaceOnUse">
<stop stop-color="white"/>
<stop offset="1" stop-color="white" stop-opacity="0.56"/>
</linearGradient>
<linearGradient id="paint43_linear_505_24" x1="35.8857" y1="239" x2="35.8857" y2="284" gradientUnits="userSpaceOnUse">
<stop stop-color="#F5FAFF" stop-opacity="0.08"/>
<stop offset="1" stop-color="#F4F9FF" stop-opacity="0.06"/>
</linearGradient>
<linearGradient id="paint44_linear_505_24" x1="35.8857" y1="239" x2="35.8857" y2="284" gradientUnits="userSpaceOnUse">
<stop stop-color="white"/>
<stop offset="1" stop-color="white" stop-opacity="0.08"/>
</linearGradient>
<linearGradient id="paint45_linear_505_24" x1="98.2957" y1="95" x2="98.2957" y2="140" gradientUnits="userSpaceOnUse">
<stop stop-color="#F5FAFF" stop-opacity="0.08"/>
<stop offset="1" stop-color="#F4F9FF" stop-opacity="0.06"/>
</linearGradient>
<linearGradient id="paint46_linear_505_24" x1="98.2957" y1="95" x2="98.2957" y2="140" gradientUnits="userSpaceOnUse">
<stop stop-color="white"/>
<stop offset="1" stop-color="white" stop-opacity="0.08"/>
</linearGradient>
<linearGradient id="paint47_linear_505_24" x1="98.2054" y1="105" x2="98.2054" y2="130" gradientUnits="userSpaceOnUse">
<stop stop-color="white"/>
<stop offset="1" stop-color="white" stop-opacity="0.56"/>
</linearGradient>
<linearGradient id="paint48_linear_505_24" x1="754.835" y1="63.9928" x2="57.9238" y2="63.9941" gradientUnits="userSpaceOnUse">
<stop stop-color="white" stop-opacity="0.04"/>
<stop offset="0.291229" stop-color="white" stop-opacity="0.7"/>
<stop offset="1" stop-color="white" stop-opacity="0.08"/>
</linearGradient>
<linearGradient id="paint49_linear_505_24" x1="700.603" y1="81.0892" x2="69.7782" y2="81.0902" gradientUnits="userSpaceOnUse">
<stop stop-color="white" stop-opacity="0.08"/>
<stop offset="0.389321" stop-color="white" stop-opacity="0.7"/>
<stop offset="1" stop-color="white" stop-opacity="0.08"/>
</linearGradient>
<linearGradient id="paint50_linear_505_24" x1="823.334" y1="97.5093" x2="15.9935" y2="97.5109" gradientUnits="userSpaceOnUse">
<stop stop-color="white" stop-opacity="0.08"/>
<stop offset="0.459898" stop-color="white" stop-opacity="0.4"/>
<stop offset="1" stop-color="white" stop-opacity="0.08"/>
</linearGradient>
<linearGradient id="paint51_linear_505_24" x1="761.096" y1="163.735" x2="74.3721" y2="158.462" gradientUnits="userSpaceOnUse">
<stop stop-color="white" stop-opacity="0.08"/>
<stop offset="0.459898" stop-color="white" stop-opacity="0.7"/>
<stop offset="1" stop-color="white" stop-opacity="0.08"/>
</linearGradient>
<linearGradient id="paint52_linear_505_24" x1="584.248" y1="176.063" x2="91.4823" y2="176.054" gradientUnits="userSpaceOnUse">
<stop stop-color="white" stop-opacity="0.08"/>
<stop offset="0.459898" stop-color="white" stop-opacity="0.7"/>
<stop offset="1" stop-color="white" stop-opacity="0.08"/>
</linearGradient>
<linearGradient id="paint53_linear_505_24" x1="676.673" y1="196.001" x2="78.3842" y2="197.782" gradientUnits="userSpaceOnUse">
<stop stop-color="white" stop-opacity="0.08"/>
<stop offset="0.459898" stop-color="white" stop-opacity="0.7"/>
<stop offset="1" stop-color="white" stop-opacity="0.08"/>
</linearGradient>
</defs>
</svg>
