<svg width="1090" height="346" viewBox="0 0 1090 346" fill="none" xmlns="http://www.w3.org/2000/svg">
<path d="M203.356 150.344C176.417 154.256 151.596 165.645 144.07 176.959L158.549 222.912C159.197 200.858 180.753 187.4 203.356 182.068V150.344Z" fill="#974DF7"/>
<path d="M525.28 345.072C525.205 344.648 524.931 343.178 524.482 341.06L524.433 341.01C523.261 335.203 520.645 324.064 516.857 311.504C512.994 298.72 507.91 284.515 501.581 273.201C499.687 269.737 497.693 266.572 495.6 263.707C495.6 263.707 496.447 269.962 494.727 279.107C494.453 280.852 494.055 282.696 493.556 284.54C493.481 284.914 493.357 285.313 493.232 285.637C492.061 290.272 490.067 295.206 487.201 300.439C487.027 300.763 486.803 301.112 486.603 301.461C477.084 294.558 448.325 282.497 407.904 282.497C399.182 282.497 389.887 283.07 380.118 284.366C340.071 289.699 278.642 312.775 240.314 312.775C219.556 312.775 205.575 306.022 205.401 286.06C205.276 272.13 217.138 262.112 231.866 252.642C233.062 251.894 234.259 251.147 235.48 250.374C236.676 249.627 237.897 248.904 239.118 248.156C251.18 240.83 264.113 233.553 273.458 224.731C274.804 223.46 276.05 222.189 277.221 220.843C278.492 219.448 279.639 218.002 280.66 216.507C287.613 206.539 289.607 194.552 282.081 178.877C275.951 166.118 265.309 158.069 252.55 153.583V187.101C253.846 188.522 254.768 190.116 255.167 191.886C256.039 195.798 255.84 199.661 253.597 203.698C252.899 204.969 252.002 206.24 250.881 207.561C250.058 208.508 249.136 209.455 248.065 210.427C242.358 215.66 232.913 221.292 218.035 227.672C216.939 228.145 215.842 228.619 214.696 229.092C214.148 229.316 213.6 229.541 213.051 229.765C212.403 230.039 211.78 230.288 211.157 230.562C180.879 243.745 171.16 268.491 173.154 289.026C174.35 301.337 186.013 339.34 244.277 339.34C302.541 339.34 323.15 306.719 407.306 300.215C410.745 299.941 414.11 299.816 417.399 299.816C445.41 299.816 466.792 308.862 477.208 314.37C476.585 315.068 475.987 315.765 475.339 316.438C471.551 320.251 467.14 324.039 461.807 327.478C461.085 328.026 460.412 328.5 459.639 328.998C454.929 331.989 449.621 334.855 443.541 337.446C443.541 337.446 447.054 337.795 452.761 338.318C468.71 339.814 501.73 342.904 519.523 344.698C521.716 344.897 523.685 345.072 525.33 345.221C525.33 345.221 525.313 345.172 525.28 345.072Z" fill="#974DF7"/>
<path d="M245.669 202.128C245.27 199.71 245.071 197.094 245.071 194.278V65.04H210.83V197.019C210.83 205.766 212.251 213.79 214.942 220.868C233.707 212.818 242.08 206.688 245.669 202.128Z" fill="#974DF7"/>
<path d="M284.844 223.41C275.798 234.773 261.693 243.296 247.986 251.52C252.721 252.841 257.855 253.538 263.287 253.538C287.46 253.538 298.351 242.922 302.687 233.702H307.571V251.345H367.63V222.338H341.264V144.91H307.023V185.057C307.023 205.193 299.098 218.625 285.093 223.086C285.018 223.185 284.918 223.31 284.844 223.41Z" fill="#974DF7"/>
<path d="M37.884 152.464V128.54C37.884 102.449 53.6337 85.6024 80.2737 85.6024C106.914 85.6024 122.663 102.449 122.663 128.54V251.373H158.524V129.637C158.524 80.718 128.096 53.5547 80.2737 53.5547C32.4513 53.5547 2.02344 80.718 2.02344 129.637V152.464H37.884Z" fill="#974DF7"/>
<path d="M378.572 65.042H414.433V139.704H485.082V65.042H520.943V251.372H485.082V172.3H414.433V251.372H378.572V65.042Z" fill="white"/>
<path d="M538.359 211.975C538.359 184.263 560.09 169.859 590.543 169.859H627.5V162.259C627.5 149.749 619.899 140.528 602.505 140.528C585.11 140.528 577.784 149.225 575.341 161.461L543.817 150.87C550.346 130.485 568.015 112.816 603.053 112.816C638.091 112.816 660.669 131.033 660.669 164.726V214.99C660.669 220.423 663.385 223.139 668.27 223.139H679.135V251.399H656.308C643 251.399 633.207 244.347 633.207 233.456V233.182H628.048C625.606 239.986 617.183 255.187 588.923 255.187C560.663 255.187 538.384 239.711 538.384 211.975H538.359ZM627.475 198.119V195.403H592.96C580.201 195.403 572.575 201.11 572.575 210.878C572.575 220.647 580.176 227.451 594.854 227.451C613.868 227.451 627.45 216.037 627.45 198.094L627.475 198.119Z" fill="white"/>
<path d="M684.023 185.882V182.069C684.023 138.059 714.725 112.79 753.851 112.79C792.976 112.79 814.98 135.069 820.687 164.974L787.543 172.026C785.375 155.728 775.307 143.218 754.673 143.218C734.039 143.218 718.264 157.074 718.264 182.617V185.334C718.264 210.877 734.014 224.733 754.673 224.733C775.332 224.733 785.375 213.045 788.365 195.651L821.51 203.525C814.457 232.608 792.427 255.161 753.851 255.161C715.274 255.161 684.023 229.891 684.023 185.882Z" fill="white"/>
<path d="M838.906 61.1553H873.147V166.32H878.031L922.589 116.603H967.147L904.92 181.82L969.315 251.373H925.28L878.006 197.844H873.122V251.373H838.881V61.1553H838.906Z" fill="white"/>
<path d="M969.883 211.152L1001.41 203.003C1004.95 222.017 1017.71 227.998 1033.48 227.998C1049.25 227.998 1056.86 221.743 1056.86 213.32C1056.86 204.897 1050.05 201.084 1034.03 198.093L1026.43 196.723C998.168 191.564 974.792 180.973 974.792 154.333C974.792 127.693 995.999 112.766 1028.05 112.766C1058.2 112.766 1078.86 127.444 1085.12 149.174L1053.32 158.968C1050.33 145.112 1041.08 139.954 1028.05 139.954C1015.01 139.954 1007.94 144.838 1007.94 152.713C1007.94 161.41 1015.54 164.949 1028.05 167.117L1035.65 168.488C1066.08 173.92 1090 182.618 1090 210.878C1090 239.137 1067.72 255.161 1033.48 255.161C999.239 255.161 974.518 239.411 969.883 211.152Z" fill="white"/>
<path d="M42.0946 70.8489C37.908 69.1045 34.6932 66.3134 31.6779 62.9242C28.1142 59.7344 23.7531 54.7254 20.4387 46.8505C16.277 36.9321 11.5172 20.5843 18.2706 0.0996819V0C18.2706 0 18.2956 0 18.2706 0.0498409C18.0962 0.274125 17.4483 1.12142 16.3767 2.74125C13.5607 6.90297 7.03151 16.9958 3.64232 28.6835C-4.73096 57.5414 1.84805 76.0324 18.0962 95.0218C19.8406 97.0652 21.8592 99.0589 24.2765 101.028C24.3263 100.978 24.3263 100.953 24.3762 100.903C24.4011 101.028 24.3762 101.177 24.3762 101.177C27.2669 102.074 30.1577 100.554 33.0983 98.0371C34.768 96.5918 36.4875 95.3208 38.6057 93.1777C38.6057 93.1278 38.6556 93.1029 38.6556 93.1029C39.5527 92.0811 40.4748 90.9348 41.3221 89.8383C43.3157 87.2466 44.9605 84.8044 46.1816 82.7858C51.2903 74.4125 49.0973 73.341 48.6736 72.7429C46.2563 72.2195 44.0135 71.6713 42.0697 70.8489H42.0946Z" fill="#974DF7"/>
<path d="M116.456 70.8489C120.643 69.1045 123.857 66.3134 126.873 62.9242C130.436 59.7344 134.797 54.7254 138.112 46.8505C142.274 36.9321 147.033 20.5594 140.28 0.0996819V0C140.28 0 140.23 0 140.28 0.0498409C140.454 0.274125 141.102 1.12142 142.174 2.74125C144.99 6.90297 151.519 16.9958 154.908 28.6835C163.282 57.5414 156.703 76.0324 140.454 95.0218C138.71 97.0652 136.691 99.0589 134.274 101.028C134.224 100.978 134.224 100.953 134.174 100.903C134.15 101.028 134.174 101.177 134.174 101.177C131.284 102.074 128.393 100.554 125.452 98.0371C123.783 96.5918 122.063 95.3208 119.945 93.1777C119.945 93.1278 119.895 93.1029 119.895 93.1029C118.998 92.0811 118.076 90.9348 117.229 89.8383C115.235 87.2466 113.59 84.8044 112.369 82.7858C107.26 74.4125 109.453 73.341 109.877 72.7429C112.294 72.2195 114.537 71.6713 116.481 70.8489H116.456Z" fill="#974DF7"/>
</svg>
