<svg width="1856" height="312" viewBox="0 0 1856 312" fill="none" xmlns="http://www.w3.org/2000/svg">
<path d="M791.3 156.01C791.3 177.36 806.22 191.73 827.07 191.73H906.38V155.21H959.7V242.68H830.8C777.17 242.68 737.98 207.76 737.98 156.01C737.98 104.26 777.18 69.34 830.8 69.34H959.7V120.53H827.07C806.22 120.53 791.3 134.9 791.3 156V156.01ZM651.13 242.68V69.35H704.46V242.68H651.13ZM997.04 242.68V69.35H1050.37V242.68H997.04ZM1148 242.68V120.28H1086.4V69.35H1263.2V120.28H1201.6V242.68H1148ZM1557.17 242.68V69.35H1610.5V242.68H1557.17ZM1420.71 83.02C1413.74 74.64 1403.34 69.32 1391.66 69.32C1379.98 69.32 1369.59 74.64 1362.61 83.02C1361.82 84 1246.12 242.68 1246.12 242.68H1312.16L1391.65 133.71L1416.9 168.32H1391.73C1382.44 181.1 1373.2 193.7 1365.13 204.83H1443.5L1471.14 242.68H1537.18C1537.18 242.68 1421.49 84 1420.69 83.02H1420.71ZM1801.83 69.32V163C1801.83 163 1703.14 76.72 1702.71 76.41C1697.21 71.95 1690.24 69.32 1682.59 69.32C1664.8 69.32 1650.36 83.75 1650.36 101.55V242.68H1703.86V149C1703.86 149 1802.55 235.28 1802.98 235.59C1808.48 240.05 1815.45 242.68 1823.1 242.68C1840.89 242.68 1855.33 228.25 1855.33 210.45V69.32H1801.83ZM528.28 69.35H399.34V242.68H528.28C581.84 242.68 621.03 207.77 621.03 155.98C621.03 104.19 581.84 69.34 528.28 69.34V69.35ZM532.01 191.44H452.65V120.27H532.01C552.8 120.27 567.72 134.7 567.72 155.98C567.72 177.26 552.8 191.44 532.01 191.44ZM234.83 277.64C211.56 285.22 201.02 303.63 149.38 286.7C114.75 275.35 115.94 306.38 134.19 310.35C141.53 311.45 148.99 312 156.69 312C195.51 312 231.1 297.75 258.37 274.15C249.02 271.46 244.76 274.4 234.83 277.63V277.64ZM207.08 264.93C199.42 257.53 194.1 250.38 191.62 246.48C172.66 216.73 126.52 209.99 122.9 232.31C118.05 262.16 132.98 269.14 153.79 275.81C193.12 288.43 211.86 275.19 213.14 272.46C214.55 269.61 209.97 267.71 207.09 264.93H207.08ZM156.7 0C129.55 0 104.06 6.97001 81.93 19.14C102.53 28.25 138.18 25.99 151.63 22.01C176.58 14.67 192.23 14.49 203.72 14.31C210.08 14.19 214.79 14.13 218.76 12.84C199.68 4.59 178.71 0 156.7 0ZM94.09 177.8C79.97 156.64 66.45 145.82 55.02 145.4C40.65 144.85 34.48 161.66 32.89 165.09C27.88 175.73 22.19 187.71 16.02 186.43C7.03005 185.27 3.06004 167.05 0.670044 156.17C0.670044 180.2 6.17005 202.88 16.02 223.18C30.2 222.02 47.04 233.88 54.68 238.95C64.95 246.47 80.54 254.36 91.85 249.22C120.52 236.2 103.57 192.36 94.09 177.81V177.8ZM311.63 138.36C304.42 161.35 300.8 166.02 283.98 178.8C278.78 183.45 277.72 189.34 277.17 196.07C276.99 198.27 273.77 236.44 257.52 262.54C256.91 264.68 257.09 266.09 258.07 266.7C259.97 267.8 264.55 266.39 269.87 263.22C296.4 235.28 312.67 197.56 312.67 156.04C312.67 150.05 312.3 144.12 311.63 138.37V138.36ZM63.15 31.12C30.01 56 7.15005 93.73 1.89005 136.83C4.34005 142.64 6.60004 148.88 8.55005 155.84C9.96004 160.92 11.91 163.85 13.99 164.03C16.01 164.15 18.39 161.64 20.59 157C26.15 143.37 29.39 134.36 42.66 125.88C52.5 121.23 55.5 116.77 55.5 113.1C55.5 107.54 48.59 103.75 48.53 103.68C25.54 88.21 45.17 58.5 60.88 34.59C61.67 33.37 62.41 32.27 63.14 31.11H63.15V31.12ZM232.63 187.3C219.79 189.61 210.01 188.49 184.3 172.78C156.46 155.76 113.79 150.57 113.14 176.09C112.95 183.47 114.19 188.91 117.17 193.48C130.62 214.13 173.77 187.49 205 241.85C213.34 256.36 221.75 268.71 229.64 267.58C250.31 264.5 254.26 239.27 260.57 219.44C271.76 184.3 248.59 184.44 232.63 187.29V187.3ZM117.75 307.05C79.29 297.15 46.64 273.06 25.73 240.65C38.26 240.52 49.87 247.12 59.01 254.14C71.15 263.46 85.52 267.3 95.48 262.68C105.92 257.84 118.8 266.74 114.29 281.21C111.92 288.8 101.61 292.41 117.75 307.05ZM291.63 77.83C290.65 81.13 288.82 83.88 285.52 84.92C281.61 85.53 254.52 86.81 248.47 87.98C224.44 92.69 171.13 110.83 147.04 108.2C137.93 108.08 120.06 105.66 103.19 105.66C90.29 105.66 77.85 112.41 76.69 120.97C75.41 130.26 85 137.06 92.1 143.6C101.22 152.01 128.78 144.12 135.63 143.18C152.42 140.85 174.55 145.95 187.88 152.8C191.61 154.63 216.93 174.01 234.36 173.09C307.42 169.36 304.85 117.88 305.22 108.28C301.73 97.58 297.15 87.37 291.65 77.83H291.63ZM246.27 28.31C246.21 28.31 246.21 28.25 246.15 28.31C240.34 27.21 223.83 21.77 220.96 26.17C220.35 27.09 219.73 28.96 220.52 30.06C222.05 32.08 233.98 43.23 239.85 55.28C245.72 67.26 253.44 71.42 261.51 72.03C275.21 73.07 280.76 72.27 283.08 69.65C283.63 69.04 284 67.69 284.12 66.1C273.79 51.43 260.95 38.65 246.27 28.31ZM213.19 37.12C199.01 20.73 176.04 25.19 159.35 31.49C133.43 41.21 115.43 33.94 102.84 34.61C90.49 35.28 79.12 37.3 70.07 48.98C60.65 60.41 55.09 80.96 61.88 90.31C65.85 95.63 73.44 96.24 83.89 92.08C100.52 85.17 112.24 87.55 125.31 89.86C144.07 93.17 180.66 87.87 210.99 81.79C251.76 73.61 218.47 43.22 213.2 37.12H213.19Z" fill="#00AABE"/>
</svg>
