<svg width="266" height="68" viewBox="0 0 266 68" fill="none" xmlns="http://www.w3.org/2000/svg">
<path d="M86.6529 49.8922C86.1327 49.8922 85.7109 49.4662 85.7109 48.9407V25.2816C85.7109 24.7561 86.1327 24.3301 86.6529 24.3301H90.3332C90.8538 24.3301 91.275 24.7561 91.275 25.2816V45.1423H102.036C102.556 45.1423 102.978 45.5683 102.978 46.0938V48.9407C102.978 49.4662 102.556 49.8922 102.036 49.8922H86.6529Z" fill="white"/>
<path d="M111.782 50.2908C110.466 50.2908 109.305 50.037 108.3 49.5294C107.295 49.0217 106.493 48.3328 105.895 47.4627C105.32 46.5924 105.033 45.6135 105.033 44.5258C105.033 43.2446 105.368 42.2173 106.038 41.4438C106.708 40.6703 107.797 40.1264 109.305 39.8122C110.813 39.4737 112.811 39.3045 115.3 39.3045H115.982C116.319 39.3045 116.592 39.0285 116.592 38.6881C116.592 37.6246 116.353 36.8752 115.874 36.4402C115.396 35.9809 114.582 35.7512 113.433 35.7512C112.476 35.7512 111.459 35.9083 110.382 36.2226C109.646 36.4253 108.91 36.7047 108.174 37.0608C107.661 37.3093 107.033 37.0913 106.818 36.5587L106.043 34.6277C105.873 34.2062 106.022 33.7188 106.417 33.5028C106.891 33.2452 107.422 33.0035 108.013 32.778C108.922 32.4397 109.867 32.1859 110.849 32.0166C111.83 31.8232 112.763 31.7266 113.649 31.7266C116.377 31.7266 118.411 32.3551 119.751 33.612C121.092 34.8448 121.762 36.7664 121.762 39.377V48.9405C121.762 49.466 121.34 49.892 120.82 49.892H117.642C117.122 49.892 116.7 49.466 116.7 48.9405V47.2089C116.341 48.1516 115.731 48.9009 114.869 49.4568C114.032 50.0128 113.002 50.2908 111.782 50.2908ZM113.002 46.6287C114.007 46.6287 114.857 46.2782 115.552 45.5773C116.245 44.8762 116.592 43.9697 116.592 42.8578C116.592 42.4574 116.271 42.1327 115.874 42.1327H115.336C113.493 42.1327 112.189 42.3019 111.423 42.6403C110.657 42.9546 110.274 43.5105 110.274 44.3082C110.274 44.985 110.501 45.5409 110.956 45.9761C111.435 46.4112 112.117 46.6287 113.002 46.6287Z" fill="white"/>
<path d="M128.456 56.4191C127.771 56.4191 127.315 55.7042 127.598 55.0743L130.368 48.9137L123.691 33.4211C123.42 32.7926 123.875 32.0898 124.554 32.0898H128.183C128.57 32.0898 128.918 32.3288 129.059 32.6923L133.24 43.4024L137.56 32.6826C137.705 32.3242 138.049 32.0898 138.433 32.0898H141.737C142.417 32.0898 142.874 32.7974 142.598 33.4264L132.77 55.8528C132.619 56.1971 132.281 56.4191 131.909 56.4191H128.456Z" fill="white"/>
<path d="M153.504 50.2908C151.422 50.2908 149.626 49.9161 148.119 49.1668C146.636 48.3933 145.486 47.3176 144.673 45.9398C143.883 44.5378 143.488 42.8941 143.488 41.0087C143.488 39.1716 143.871 37.5641 144.637 36.1863C145.426 34.7844 146.491 33.6966 147.832 32.9231C149.196 32.1254 150.763 31.7266 152.535 31.7266C155.095 31.7266 157.129 32.5484 158.637 34.1921C160.145 35.8117 160.898 38.0114 160.898 40.7911V41.2174C160.898 41.743 160.477 42.1689 159.957 42.1689H148.657C148.849 43.5709 149.351 44.5982 150.165 45.2509C151.003 45.8794 152.152 46.1936 153.612 46.1936C154.569 46.1936 155.538 46.0486 156.519 45.7585C157.09 45.5898 157.628 45.368 158.134 45.0932C158.682 44.7949 159.403 44.9961 159.632 45.5811L160.348 47.4065C160.504 47.8039 160.38 48.2619 160.022 48.4904C159.257 48.9799 158.364 49.3866 157.345 49.7106C156.077 50.0974 154.796 50.2908 153.504 50.2908ZM152.75 35.3524C151.602 35.3524 150.668 35.7029 149.95 36.4038C149.256 37.1049 148.825 38.0838 148.657 39.3408H156.412C156.268 36.6818 155.048 35.3524 152.75 35.3524Z" fill="white"/>
<path d="M164.993 49.8916C164.472 49.8916 164.051 49.4656 164.051 48.9401V33.0402C164.051 32.5147 164.472 32.0887 164.993 32.0887H168.421C168.942 32.0887 169.363 32.5147 169.363 33.0402V35.1707C170.201 33.0919 171.996 31.9437 174.749 31.7262L175.39 31.6819C175.908 31.6462 176.358 32.0407 176.394 32.564L176.586 35.3055C176.622 35.8168 176.251 36.2649 175.746 36.3189L173.599 36.5485C170.919 36.8144 169.579 38.1922 169.579 40.6819V48.9401C169.579 49.4656 169.157 49.8916 168.637 49.8916H164.993Z" fill="white"/>
<path d="M185.42 50.2908C183.864 50.2908 182.417 50.1095 181.077 49.747C180.028 49.4633 179.119 49.0983 178.349 48.652C177.979 48.4375 177.841 47.9788 177.987 47.5741L178.631 45.804C178.837 45.2379 179.506 45.0068 180.043 45.2702C180.662 45.5737 181.33 45.8332 182.046 46.0486C183.194 46.3628 184.331 46.52 185.456 46.52C186.461 46.52 187.203 46.3628 187.682 46.0486C188.16 45.7101 188.399 45.2751 188.399 44.7432C188.399 43.8973 187.789 43.3654 186.568 43.1479L182.799 42.459C181.292 42.1931 180.143 41.6492 179.353 40.8274C178.563 40.0055 178.169 38.9299 178.169 37.6004C178.169 36.3918 178.504 35.3524 179.174 34.4822C179.844 33.612 180.765 32.9352 181.938 32.4517C183.111 31.9683 184.462 31.7266 185.994 31.7266C187.263 31.7266 188.495 31.8958 189.692 32.2341C190.64 32.4832 191.483 32.8537 192.221 33.3455C192.564 33.5744 192.677 34.0202 192.527 34.407L191.861 36.1224C191.636 36.7041 190.923 36.9127 190.375 36.6235C189.905 36.3754 189.39 36.1571 188.83 35.9688C187.849 35.6303 186.928 35.4611 186.066 35.4611C184.989 35.4611 184.212 35.6425 183.732 36.005C183.254 36.3434 183.015 36.7785 183.015 37.3103C183.015 38.1564 183.578 38.6881 184.702 38.9057L188.471 39.5946C190.027 39.8605 191.212 40.3923 192.025 41.19C192.839 41.9635 193.246 43.027 193.246 44.3807C193.246 46.242 192.528 47.6923 191.092 48.7317C189.656 49.7711 187.765 50.2908 185.42 50.2908Z" fill="white"/>
<path d="M201.612 49.8927C201.23 49.8927 200.885 49.6584 200.74 49.3001L194.328 33.4002C194.076 32.7744 194.532 32.0898 195.201 32.0898H198.637C199.03 32.0898 199.383 32.3372 199.52 32.71L203.492 43.5112L207.464 32.71C207.601 32.3372 207.954 32.0898 208.348 32.0898H210.624C211.019 32.0898 211.373 32.339 211.509 32.7137L215.482 43.6562L219.456 32.7137C219.591 32.339 219.945 32.0898 220.34 32.0898H223.491C224.16 32.0898 224.615 32.7718 224.366 33.3971L218.017 49.2971C217.874 49.657 217.528 49.8927 217.144 49.8927H213.831C213.441 49.8927 213.092 49.6511 212.952 49.2847L209.308 39.7766L205.768 49.2763C205.63 49.6471 205.279 49.8927 204.886 49.8927H201.612Z" fill="white"/>
<path d="M232.519 50.2908C231.202 50.2908 230.042 50.037 229.036 49.5294C228.031 49.0217 227.229 48.3328 226.631 47.4627C226.057 46.5924 225.77 45.6135 225.77 44.5258C225.77 43.2446 226.105 42.2173 226.775 41.4438C227.445 40.6703 228.533 40.1264 230.042 39.8122C231.549 39.4737 233.548 39.3045 236.036 39.3045H237.329V38.6881C237.329 37.6246 237.09 36.8752 236.611 36.4402C236.132 35.9809 235.319 35.7512 234.169 35.7512C233.213 35.7512 232.195 35.9083 231.119 36.2226C230.383 36.4253 229.647 36.7047 228.911 37.0608C228.398 37.3093 227.769 37.0913 227.556 36.5587L226.779 34.6277C226.61 34.2062 226.758 33.7188 227.155 33.5028C227.628 33.2452 228.159 33.0035 228.749 32.778C229.659 32.4397 230.603 32.1859 231.585 32.0166C232.566 31.8232 233.499 31.7266 234.385 31.7266C237.114 31.7266 239.148 32.3551 240.488 33.612C241.828 34.8448 242.498 36.7664 242.498 39.377V48.9405C242.498 49.466 242.077 49.892 241.556 49.892H238.378C237.858 49.892 237.436 49.466 237.436 48.9405V47.2089C237.078 48.1516 236.467 48.9009 235.605 49.4568C234.768 50.0128 233.739 50.2908 232.519 50.2908ZM233.739 46.6287C234.745 46.6287 235.594 46.2782 236.288 45.5773C236.982 44.8762 237.329 43.9697 237.329 42.8578V42.1327H236.072C234.229 42.1327 232.925 42.3019 232.159 42.6403C231.394 42.9546 231.011 43.5105 231.011 44.3082C231.011 44.985 231.238 45.5409 231.693 45.9761C232.171 46.4112 232.854 46.6287 233.739 46.6287Z" fill="white"/>
<path d="M247.484 56.4184C246.963 56.4184 246.541 55.9924 246.541 55.467V33.0406C246.541 32.5151 246.963 32.0891 247.484 32.0891H250.912C251.432 32.0891 251.854 32.5151 251.854 33.0406V34.736C252.333 33.8175 253.063 33.0922 254.044 32.5605C255.049 32.0045 256.174 31.7266 257.418 31.7266C258.95 31.7266 260.29 32.1012 261.439 32.8506C262.612 33.5999 263.521 34.6634 264.167 36.0413C264.814 37.4191 265.137 39.0628 265.137 40.9724C265.137 42.882 264.814 44.5378 264.167 45.9398C263.521 47.3176 262.612 48.3933 261.439 49.1668C260.29 49.9161 258.95 50.2908 257.418 50.2908C256.246 50.2908 255.169 50.037 254.187 49.5294C253.23 49.0217 252.488 48.3449 251.962 47.4989V55.467C251.962 55.9924 251.54 56.4184 251.02 56.4184H247.484ZM255.803 46.1936C256.952 46.1936 257.885 45.7706 258.603 44.9246C259.321 44.0785 259.68 42.7612 259.68 40.9724C259.68 39.2079 259.321 37.9146 258.603 37.0928C257.885 36.2468 256.952 35.8237 255.803 35.8237C254.63 35.8237 253.685 36.2468 252.967 37.0928C252.249 37.9146 251.89 39.2079 251.89 40.9724C251.89 42.7612 252.249 44.0785 252.967 44.9246C253.685 45.7706 254.63 46.1936 255.803 46.1936Z" fill="white"/>
<path opacity="0.6" d="M9.03906 14.4132C9.03906 11.8701 11.1006 9.80859 13.6437 9.80859H53.3584C55.9015 9.80859 57.963 11.8701 57.963 14.4132V54.1279C57.963 56.671 55.9015 58.7326 53.3584 58.7326H13.6437C11.1006 58.7326 9.03906 56.671 9.03906 54.1279V14.4132Z" fill="#FF0093"/>
<path opacity="0.5" d="M18.0762 23.4503C18.0762 20.9072 20.1377 18.8457 22.6807 18.8457H62.3955C64.9385 18.8457 67.0001 20.9072 67.0001 23.4503V63.165C67.0001 65.708 64.9385 67.7696 62.3955 67.7696H22.6807C20.1377 67.7696 18.0762 65.708 18.0762 63.165V23.4503Z" fill="#FF0093"/>
<path opacity="0.9" d="M0 5.37414C0 2.83109 2.06155 0.769531 4.60461 0.769531H44.3193C46.8624 0.769531 48.924 2.83109 48.924 5.37414V45.0889C48.924 47.632 46.8624 49.6935 44.3193 49.6935H4.60461C2.06155 49.6935 0 47.632 0 45.0889V5.37414Z" fill="#FF0093"/>
</svg>
