<?xml version="1.0" encoding="utf-8"?>
<!-- Generator: Adobe Illustrator 28.2.0, SVG Export Plug-In . SVG Version: 6.00 Build 0)  -->
<svg version="1.1" xmlns="http://www.w3.org/2000/svg" xmlns:xlink="http://www.w3.org/1999/xlink" x="0px" y="0px"
	 viewBox="0 0 841.9 240.5" style="enable-background:new 0 0 841.9 240.5;" xml:space="preserve">
<style type="text/css">
	.st0{fill-rule:evenodd;clip-rule:evenodd;fill:#440087;}
</style>
<g id="Guides_For_Artboard_00000018235396197917184930000014826400340044274840_">
</g>
<g id="Guides_For_Artboard">
</g>
<g id="Layer_1">
	<g>
		<rect x="510.8" y="12.7" class="st0" width="69.1" height="215.1"/>
		<path class="st0" d="M312.4,227.8c23,0,81.8,0,104.7,0l78.3-215.1H419l-72.2,198.4L274.6,12.7h-40.6L312.4,227.8z"/>
		<g>
			<path class="st0" d="M721.9,2.5c-65,0-117.7,52.7-117.7,117.7c0,65,52.7,117.7,117.7,117.7c65,0,117.7-52.7,117.7-117.7
				C839.7,55.2,786.9,2.5,721.9,2.5z M721.9,176.7c-59.9,0-82-56.5-82-56.5s17.1-56.5,82-56.5c59.7,0,82,56.5,82,56.5
				S776.7,176.7,721.9,176.7z"/>
		</g>
		<g>
			<path class="st0" d="M120,2.5C54.9,2.5,2.2,55.2,2.2,120.3C2.2,185.3,54.9,238,120,238s117.7-52.7,117.7-117.7
				C237.7,55.2,185,2.5,120,2.5z M120,176.7c-59.9,0-82-56.5-82-56.5S55,63.8,120,63.8c59.7,0,82,56.5,82,56.5
				S174.7,176.7,120,176.7z"/>
		</g>
	</g>
</g>
</svg>
