<?xml version="1.0" encoding="UTF-8"?>
<svg id="Layer_1" data-name="Layer 1" xmlns="http://www.w3.org/2000/svg" viewBox="0 0 691.04 219.23">
  <defs>
    <style>
      .cls-1 {
        fill: none;
      }

      .cls-2 {
        fill-rule: evenodd;
      }

      .cls-2, .cls-3 {
        fill: #eee;
      }
    </style>
  </defs>
  <rect class="cls-1" width="691.04" height="219.23"/>
  <g>
    <path class="cls-2" d="M109.85,46.06h-63.8v21.09h46.58l28.33,106.03h22.85l-33.96-127.12ZM165.45,46.06h-23.03l34.23,127.12h23.03l-34.23-127.12ZM251.35,46.06h-20.95s10.34,40.5,10.34,40.5l10.61-40.5ZM185.71,46.06h23.03l34.23,127.12h-23.03l-34.23-127.12Z"/>
    <g>
      <path class="cls-3" d="M274.82,46.06h25.81v7.59h-8.73v45.55h-8.35v-45.55h-8.73v-7.59Z"/>
      <path class="cls-3" d="M312.66,68.46h11.46v7.59h-11.46v15.56h14.42v7.59h-22.77v-53.14h22.77v7.59h-14.42v14.8Z"/>
      <path class="cls-3" d="M356.48,79.39v7.06c0,4.3-1.06,7.62-3.19,9.94-2.07,2.28-5.16,3.42-9.26,3.42s-7.21-1.14-9.34-3.42c-2.07-2.33-3.11-5.64-3.11-9.94v-27.63c0-4.3,1.04-7.59,3.11-9.87,2.13-2.33,5.24-3.49,9.34-3.49s7.19,1.16,9.26,3.49c2.13,2.28,3.19,5.57,3.19,9.87v5.16h-7.9v-5.69c0-1.92-.4-3.26-1.21-4.02-.76-.81-1.8-1.21-3.11-1.21s-2.38.4-3.19,1.21c-.76.76-1.14,2.1-1.14,4.02v28.7c0,1.92.38,3.26,1.14,4.02.81.76,1.87,1.14,3.19,1.14s2.35-.38,3.11-1.14c.81-.76,1.21-2.1,1.21-4.02v-7.59h7.9Z"/>
      <path class="cls-3" d="M369.89,99.2h-8.35v-53.14h8.35v22.77h9.49v-22.77h8.5v53.14h-8.5v-22.77h-9.49v22.77Z"/>
      <g>
        <path class="cls-3" d="M424.25,70.88l-3.04,28.32h-11.46l-5.92-53.14h8.12l4.48,41.91,4.02-41.91h8.05l4.17,42.21,4.33-42.21h7.29l-5.92,53.14h-11.08l-3.04-28.32Z"/>
        <path class="cls-3" d="M456.85,68.46h11.46v7.59h-11.46v15.56h14.42v7.59h-22.77v-53.14h22.77v7.59h-14.42v14.8Z"/>
        <path class="cls-3" d="M484.81,68.46h11.46v7.59h-11.46v15.56h14.42v7.59h-22.78v-53.14h22.78v7.59h-14.42v14.8Z"/>
        <path class="cls-3" d="M515.33,78.02l-2.58,4.86v16.32h-8.35v-53.14h8.35v23.15l10.93-23.15h8.35l-11.61,23.69,11.61,29.46h-8.58l-8.13-21.18Z"/>
      </g>
    </g>
    <g>
      <path class="cls-3" d="M290.17,162.78l6.37-43.33h7.66l-8.19,53.12h-12.44l-8.2-53.12h8.42l6.38,43.33Z"/>
      <path class="cls-3" d="M333.2,172.57h-8.42l-1.44-9.64h-10.24l-1.44,9.64h-7.67l8.5-53.12h12.22l8.5,53.12ZM314.15,155.72h8.04l-4.02-26.86-4.02,26.86Z"/>
      <path class="cls-3" d="M344.5,134.09v38.47h-7.51v-53.12h10.47l8.57,31.8v-31.8h7.43v53.12h-8.57l-10.4-38.47Z"/>
      <path class="cls-3" d="M396.48,172.57h-8.43l-1.44-9.64h-10.24l-1.44,9.64h-7.67l8.5-53.12h12.22l8.5,53.12ZM377.43,155.72h8.04l-4.02-26.86-4.02,26.86Z"/>
      <path class="cls-3" d="M400.35,119.45h13.2c4.2,0,7.32,1.12,9.37,3.34,2.05,2.23,3.08,5.49,3.08,9.79v26.86c0,4.3-1.03,7.56-3.08,9.79-2.05,2.23-5.17,3.34-9.37,3.34h-13.2v-53.12ZM408.7,127.04v37.94h4.71c1.32,0,2.35-.38,3.11-1.14s1.14-2.1,1.14-4.02v-27.62c0-1.92-.38-3.27-1.14-4.02-.76-.76-1.8-1.14-3.11-1.14h-4.71Z"/>
      <path class="cls-3" d="M454.45,119.45v7.44l-15.86,38.09h15.86v7.59h-24.43v-7.43l15.86-38.09h-15.1v-7.59h23.67Z"/>
      <path class="cls-3" d="M458.7,132.2c0-4.3,1.09-7.6,3.26-9.91,2.17-2.3,5.31-3.45,9.41-3.45s7.23,1.15,9.41,3.45c2.17,2.3,3.26,5.61,3.26,9.91v27.62c0,4.3-1.09,7.6-3.26,9.9-2.18,2.3-5.31,3.45-9.41,3.45s-7.24-1.15-9.41-3.45c-2.17-2.3-3.26-5.6-3.26-9.9v-27.62ZM467.05,160.35c0,1.92.39,3.27,1.17,4.06s1.83,1.18,3.15,1.18,2.37-.4,3.15-1.18,1.17-2.14,1.17-4.06v-28.68c0-1.92-.39-3.28-1.17-4.06s-1.83-1.17-3.15-1.17-2.37.39-3.15,1.17-1.17,2.14-1.17,4.06v28.68Z"/>
      <path class="cls-3" d="M506.89,172.57c-.1-.35-.2-.69-.3-.99-.1-.3-.19-.68-.27-1.14-.08-.46-.13-1.04-.15-1.75-.02-.7-.04-1.59-.04-2.66v-8.34c0-2.48-.43-4.22-1.29-5.24s-2.25-1.52-4.17-1.52h-2.88v21.63h-8.34v-53.12h12.59c4.35,0,7.5,1.01,9.45,3.04s2.92,5.08,2.92,9.18v4.17c0,5.46-1.82,9.05-5.46,10.78,2.12.86,3.58,2.26,4.36,4.21.78,1.95,1.18,4.32,1.18,7.1v8.2c0,1.32.05,2.46.15,3.45.1.98.35,1.98.76,2.99h-8.5ZM497.78,127.04v16.31h3.27c1.56,0,2.79-.4,3.68-1.21.88-.81,1.33-2.28,1.33-4.4v-5.24c0-1.92-.35-3.32-1.03-4.17-.69-.86-1.76-1.29-3.23-1.29h-4.02Z"/>
      <path class="cls-3" d="M548.24,132.5c0-2.38-.39-3.98-1.17-4.82-.78-.84-1.83-1.25-3.15-1.25s-2.37.39-3.15,1.17-1.18,2.14-1.18,4.06v5.69h-7.89v-5.16c0-4.3,1.04-7.6,3.14-9.91,2.1-2.3,5.2-3.45,9.3-3.45s7.19,1.15,9.29,3.45c2.1,2.3,3.15,5.61,3.15,9.91,0,2.88-.44,5.49-1.33,7.81-.88,2.33-1.99,4.45-3.3,6.38-1.32,1.92-2.73,3.68-4.25,5.27-1.51,1.59-2.88,3.11-4.09,4.55-1.22,1.44-2.18,2.87-2.88,4.29-.71,1.42-.94,2.91-.69,4.48h15.78v7.59h-24.13v-6.53c0-2.58.4-4.85,1.21-6.83.81-1.97,1.83-3.78,3.08-5.42,1.24-1.64,2.56-3.19,3.98-4.63,1.41-1.44,2.74-2.97,3.98-4.59,1.24-1.62,2.27-3.39,3.08-5.31.81-1.93,1.21-4.17,1.21-6.76Z"/>
      <path class="cls-3" d="M561.06,132.2c0-4.3,1.09-7.6,3.26-9.91,2.17-2.3,5.31-3.45,9.41-3.45s7.23,1.15,9.41,3.45c2.17,2.3,3.26,5.61,3.26,9.91v27.62c0,4.3-1.09,7.6-3.26,9.9-2.18,2.3-5.31,3.45-9.41,3.45s-7.24-1.15-9.41-3.45c-2.17-2.3-3.26-5.6-3.26-9.9v-27.62ZM569.41,160.35c0,1.92.39,3.27,1.17,4.06s1.83,1.18,3.15,1.18,2.37-.4,3.15-1.18,1.17-2.14,1.17-4.06v-28.68c0-1.92-.39-3.28-1.17-4.06s-1.83-1.17-3.15-1.17-2.37.39-3.15,1.17-1.17,2.14-1.17,4.06v28.68Z"/>
      <path class="cls-3" d="M608.33,132.5c0-2.38-.39-3.98-1.17-4.82-.78-.84-1.83-1.25-3.15-1.25s-2.37.39-3.15,1.17-1.18,2.14-1.18,4.06v5.69h-7.89v-5.16c0-4.3,1.04-7.6,3.14-9.91,2.1-2.3,5.2-3.45,9.3-3.45s7.19,1.15,9.29,3.45c2.1,2.3,3.15,5.61,3.15,9.91,0,2.88-.44,5.49-1.33,7.81-.88,2.33-1.99,4.45-3.3,6.38-1.32,1.92-2.73,3.68-4.25,5.27-1.51,1.59-2.88,3.11-4.09,4.55-1.22,1.44-2.18,2.87-2.88,4.29-.71,1.42-.94,2.91-.69,4.48h15.78v7.59h-24.13v-6.53c0-2.58.4-4.85,1.21-6.83.81-1.97,1.83-3.78,3.08-5.42,1.24-1.64,2.56-3.19,3.98-4.63,1.41-1.44,2.74-2.97,3.98-4.59,1.24-1.62,2.27-3.39,3.08-5.31.81-1.93,1.21-4.17,1.21-6.76Z"/>
      <path class="cls-3" d="M629.35,155.49v4.93c0,1.92.39,3.26,1.17,4.02s1.83,1.14,3.15,1.14,2.37-.38,3.15-1.14c.78-.77,1.18-2.11,1.18-4.04v-11.73c0-1.93-.4-3.29-1.18-4.07-.78-.79-1.83-1.19-3.15-1.19s-2.37.4-3.15,1.18c-.78.78-1.17,2.14-1.17,4.06v1.59h-7.89l1.52-30.81h22v7.59h-14.49l-.68,12.67c1.57-2.58,4-3.87,7.28-3.87,3.09,0,5.4,1.04,6.95,3.11,1.54,2.07,2.32,5.09,2.32,9.03v11.84c0,4.3-1.06,7.6-3.15,9.9-2.1,2.3-5.2,3.45-9.3,3.45s-7.19-1.14-9.29-3.41c-2.1-2.28-3.15-5.56-3.15-9.86v-4.4h7.89Z"/>
    </g>
  </g>
</svg>