<?xml version="1.0" encoding="UTF-8"?>
<svg id="Layer_1" data-name="Layer 1" xmlns="http://www.w3.org/2000/svg" viewBox="0 0 1000 488.23">
  <defs>
    <style>
      .cls-1 {
        fill: none;
      }

      .cls-2 {
        fill-rule: evenodd;
      }

      .cls-2, .cls-3 {
        fill: #eee;
      }
    </style>
  </defs>
  <rect class="cls-1" width="1000" height="488.23"/>
  <g>
    <path class="cls-2" d="M244.62,102.62H102.56v46.95h103.73l63.08,236.1h50.88L244.62,102.62ZM368.42,102.62h-51.28l76.22,283.06h51.28l-76.23-283.06ZM559.71,102.63h-46.65s23.03,90.19,23.03,90.19l23.62-90.19ZM413.54,102.62h51.28l76.23,283.06h-51.28l-76.22-283.06Z"/>
    <g>
      <path class="cls-3" d="M611.96,102.63h57.48v16.9h-19.44v101.43h-18.59v-101.43h-19.44v-16.9Z"/>
      <path class="cls-3" d="M696.22,152.5h25.53v16.9h-25.53v34.65h32.12v16.9h-50.71v-118.33h50.71v16.9h-32.12v32.96Z"/>
      <path class="cls-3" d="M793.79,176.84v15.72c0,9.58-2.37,16.96-7.1,22.15-4.62,5.07-11.5,7.61-20.62,7.61s-16.06-2.54-20.79-7.61c-4.62-5.18-6.93-12.57-6.93-22.15v-61.53c0-9.58,2.31-16.9,6.93-21.98,4.73-5.18,11.67-7.78,20.79-7.78s16,2.59,20.62,7.78c4.73,5.07,7.1,12.4,7.1,21.98v11.5h-17.58v-12.68c0-4.28-.9-7.27-2.7-8.96-1.69-1.8-4-2.7-6.93-2.7s-5.29.9-7.1,2.7c-1.69,1.69-2.53,4.68-2.53,8.96v63.9c0,4.28.84,7.27,2.53,8.96,1.8,1.69,4.17,2.54,7.1,2.54s5.24-.85,6.93-2.54c1.8-1.69,2.7-4.68,2.7-8.96v-16.91h17.58Z"/>
      <path class="cls-3" d="M823.67,220.96h-18.59v-118.33h18.59v50.71h21.13v-50.71h18.93v118.33h-18.93v-50.71h-21.13v50.71Z"/>
    </g>
    <g>
      <path class="cls-3" d="M657.43,322.62l-6.76,63.05h-25.53l-13.18-118.33h18.09l9.97,93.31,8.96-93.31h17.92l9.3,93.99,9.63-93.99h16.23l-13.18,118.33h-24.68l-6.76-63.05Z"/>
      <path class="cls-3" d="M730.03,317.21h25.53v16.9h-25.53v34.65h32.12v16.9h-50.71v-118.33h50.71v16.9h-32.12v32.96Z"/>
      <path class="cls-3" d="M792.27,317.21h25.53v16.9h-25.53v34.65h32.12v16.9h-50.72v-118.33h50.72v16.9h-32.12v32.96Z"/>
      <path class="cls-3" d="M860.25,338.51l-5.75,10.82v36.34h-18.59v-118.33h18.59v51.56l24.34-51.56h18.59l-25.86,52.74,25.86,65.59h-19.1l-18.09-47.16Z"/>
    </g>
  </g>
</svg>