<svg width="1407" height="417" viewBox="0 0 1407 417" fill="none" xmlns="http://www.w3.org/2000/svg">
<path d="M1400.54 111.245H1368.97V73.1938C1368.97 71.1793 1368.07 69.3886 1366.51 68.0456C1364.94 66.9264 1363.15 66.4788 1361.13 66.9264L1333.37 73.6414C1330.46 74.3129 1328.45 76.9989 1328.45 79.9088V111.022H1312.55C1308.97 111.022 1306.29 113.931 1306.29 117.513V140.568C1306.29 144.149 1309.2 147.059 1312.55 147.059H1328.45V239.726C1328.9 279.12 1353.97 284.492 1381.28 284.492C1383.97 284.492 1386.66 284.492 1389.34 284.269C1392.03 284.269 1394.94 284.045 1397.85 284.045H1398.07C1401.88 283.597 1404.12 280.911 1404.12 277.33V252.708C1404.12 249.127 1401.21 246.217 1397.85 246.217H1388.22C1374.34 246.217 1368.75 240.173 1368.75 225.177V147.059H1400.31C1403.89 147.059 1406.58 144.149 1406.58 140.568V117.737C1406.81 114.155 1403.89 111.245 1400.54 111.245Z" fill="white"/>
<path d="M1231.06 108.783C1214.5 108.783 1201.73 113.931 1192.56 124.004V117.737C1192.56 114.155 1189.87 111.245 1186.29 111.245H1156.96C1153.38 111.245 1150.69 113.931 1150.69 117.737V277.554C1150.69 281.135 1153.38 284.045 1156.96 284.045H1186.29C1189.87 284.045 1192.56 281.359 1192.56 277.554V177.5C1192.56 158.922 1203.75 146.611 1220.54 146.611C1237.33 146.611 1248.3 158.922 1248.3 177.948V277.777C1248.3 281.359 1250.99 284.269 1254.57 284.269H1283.9C1287.48 284.269 1290.17 281.583 1290.17 277.777V170.114C1290.17 132.733 1266.88 108.783 1231.06 108.783Z" fill="white"/>
<path d="M1083.53 180.634H1021.29C1021.74 175.038 1022.41 171.233 1023.53 167.875V167.651C1027.56 153.774 1037.41 146.387 1051.74 146.387C1067.19 146.387 1078.16 154.669 1081.74 169.666C1082.64 172.128 1083.31 175.933 1083.53 180.634ZM1051.74 108.783C1017.71 108.783 991.966 128.033 983.011 160.041C980.1 169.666 978.757 181.529 978.981 196.526C978.981 214.88 981.444 229.653 986.369 241.74C997.563 270.167 1021.74 286.283 1054.87 286.955C1055.32 286.955 1055.77 286.955 1055.99 286.955C1083.53 286.955 1107.04 275.539 1120.92 255.618C1122.93 252.708 1122.26 249.574 1119.57 247.112L1099.87 230.325C1098.08 228.758 1096.29 228.534 1095.17 228.758C1094.05 228.982 1092.26 229.653 1090.69 231.892C1082.86 243.307 1072.11 249.127 1058.46 249.127C1040.1 248.903 1028.23 241.293 1023.53 226.743C1022.19 223.61 1021.52 218.909 1021.07 213.761H1119.57C1123.38 213.761 1125.84 211.075 1125.84 207.27C1126.07 196.078 1126.07 187.573 1124.95 178.395C1119.57 132.286 1094.95 108.783 1051.74 108.783Z" fill="white"/>
<path d="M912.265 196.078C912.265 214.209 911.593 218.909 910.026 224.505C906.668 238.159 896.593 246.217 882.489 246.217C868.385 246.217 857.415 237.935 853.162 224.058C851.818 220.476 850.251 212.866 850.251 196.526C850.251 183.544 851.371 174.814 853.833 168.547C858.535 154.445 868.833 146.387 882.265 146.387C896.37 146.387 906.668 154.669 910.026 168.323C911.593 174.367 912.265 178.619 912.265 196.078ZM947.861 111.246H918.757C915.175 111.246 912.489 113.932 912.489 117.737V121.99C902.862 113.036 890.325 108.56 874.206 108.56C845.774 108.56 822.491 126.019 813.536 153.998C808.834 167.204 808.387 183.544 808.387 196.302C808.387 213.09 809.73 225.848 812.64 236.592C822.715 270.167 852.266 282.254 876.445 282.254C891.668 282.254 903.757 278.001 912.489 269.72C912.265 283.821 908.683 293.894 901.295 300.609C891.668 309.338 875.325 312.696 850.923 310.233C844.654 310.233 843.983 314.486 843.983 316.277L843.087 343.137C843.087 346.942 845.102 349.404 848.908 349.852C854.953 350.523 860.773 350.747 866.37 350.747C893.459 350.747 916.071 343.585 931.07 330.155C946.518 316.277 954.353 295.908 954.353 269.72V117.737C954.129 114.155 951.443 111.246 947.861 111.246Z" fill="white"/>
<path d="M794.06 111.917C789.582 110.126 784.657 109.231 779.06 109.231C764.06 109.231 751.971 115.274 742.792 127.361V117.737C742.792 114.155 739.882 111.245 736.524 111.245H707.196C703.614 111.245 700.928 114.155 700.928 117.737V277.554C700.928 281.135 703.838 284.045 707.196 284.045H736.524C740.106 284.045 742.792 281.135 742.792 277.554V184.663C742.792 164.742 757.344 154.893 771.672 153.998C776.821 153.326 779.508 153.55 782.866 154.221C786.448 154.893 789.806 152.655 790.702 149.297L798.537 120.87C799.209 117.065 797.418 113.26 794.06 111.917Z" fill="white"/>
<path d="M629.512 209.284V223.834C629.512 241.069 611.602 251.589 594.139 251.589C582.498 251.589 569.961 246.441 569.961 232.115C569.961 217.566 582.274 209.284 603.766 209.284H629.512ZM601.751 108.783C569.513 108.783 543.767 123.556 536.156 146.387C535.484 148.402 535.708 150.416 536.827 152.207C537.723 153.774 539.29 154.893 541.305 155.341L570.185 162.503C573.095 162.951 576.229 161.384 577.349 158.698C580.707 150.864 589.662 146.387 602.87 146.387C620.333 146.387 629.512 154.893 629.512 170.785V177.724H596.378C553.394 177.724 527.648 198.988 527.648 234.354C527.648 272.629 557.2 286.283 584.737 286.283C603.318 286.283 618.542 280.687 629.288 270.391V277.33C629.288 280.911 632.198 283.821 635.556 283.821H664.884C668.466 283.821 671.152 280.911 671.152 277.33V166.98C671.376 132.733 642.72 108.783 601.751 108.783Z" fill="white"/>
<path d="M286.535 0H169.225C165.195 0 162.06 3.35751 162.06 7.38651C159.598 121.094 102.062 228.982 2.8854 305.309C-0.248854 307.771 -0.920489 312.248 1.31826 315.605L70.0479 413.42C72.2866 416.778 76.988 417.449 80.1223 414.987C142.136 367.534 192.06 310.233 227.88 246.888C263.7 310.457 313.624 367.534 375.637 414.987C378.772 417.449 383.473 416.778 385.712 413.42L454.441 315.605C456.68 312.248 456.008 307.771 452.874 305.309C353.697 228.982 296.162 121.094 293.699 7.38651C293.699 3.13367 290.565 0 286.535 0Z" fill="white"/>
</svg>
