<svg width="898" height="269" viewBox="0 0 898 269" fill="none" xmlns="http://www.w3.org/2000/svg">
<path fill-rule="evenodd" clip-rule="evenodd" d="M356.6 130.3V266.9H408.7V248.2H378.6V130.3H356.6ZM897.6 179.1V156.5C897.6 139.9 886.5 129.2 866.4 129.2C846.3 129.2 835.2 140.1 835.2 156.5V240.8C835.2 257.2 846.3 268.1 866.4 268.1C886.5 268.1 897.6 257.4 897.6 240.8V198.8H866.8V217.5H876.2V240.7C876.2 246 872.1 248.7 866.4 248.7C860.3 248.7 857.4 246 857.4 240.7V156.4C855.8 145.7 876.7 146.1 876.1 156.4V179H897.6V179.1ZM800.4 170.5C800.4 181 800.6 192.6 801 205.1L780.7 130.3H756.7V267H776.8V226.8C776.8 215.7 776.6 203.8 776.2 190.9L797.1 267H820.5V130.3H800.4V170.5ZM718.6 266.9H740.6V130.3H718.6V266.9ZM682.1 187.9C682.1 193.2 679.4 195.9 674.1 195.9H664.1V149H674.1C679.4 149 682.1 151.7 682.1 157V187.9ZM704.2 187.9V157.1C704.2 140.5 693.9 130.4 674.1 130.4H642.1V267H664.2V214.6H671L684.9 266.9H707L692 210.6C700.1 206.3 704.2 198.4 704.2 187.9ZM609.1 187.9C609.1 193.2 606.4 195.9 601.1 195.9H591.1V149H601.1C606.4 149 609.1 151.7 609.1 157V187.9ZM601.1 130.3H569.1V266.9H591.2V214.6H601.2C620.9 214.6 631.3 204.4 631.3 187.9V157.1C631.1 140.4 620.8 130.3 601.1 130.3ZM532.3 240.8C533.5 251.3 512.8 251.3 514.1 240.8V156.5C512.7 146 533.4 146 532.3 156.5V240.8ZM523.2 129.1C503.1 129.1 492 140 492 156.4V240.7C492 257.1 503.1 268 523.2 268C543.3 268 554.4 257.3 554.4 240.7V156.4C554.4 139.8 543.3 129.1 523.2 129.1ZM456.8 240.8C458 251.3 437.3 251.3 438.6 240.8V156.5C437.2 146 457.9 146 456.8 156.5V240.8ZM447.6 129.1C427.5 129.1 416.4 140 416.4 156.4V240.7C416.4 257.1 427.5 268 447.6 268C467.7 268 478.8 257.3 478.8 240.7V156.4C478.8 139.8 467.7 129.1 447.6 129.1Z" fill="white"/>
<path fill-rule="evenodd" clip-rule="evenodd" d="M194.7 130.2H336.4V131.1L115.1 266.1L224.9 178.3L194.7 130.2ZM112.1 0V267.8L0 178.2L112.1 0Z" fill="white"/>
</svg>
