<svg xmlns="http://www.w3.org/2000/svg" width="168" height="19" viewBox="0 0 168 19" fill="none"><script xmlns=""/><script xmlns="" id="argent-x-extension" data-extension-id="dlcobpjiigpikoobohmabehhmhfoodbb"/>
<path d="M0.908997 13.758C0.908997 13.585 0.908997 13.125 0.933998 13.051L4.005 13.114V13.288C4.005 14.947 4.624 15.516 6.456 15.516H9.477C11.285 15.516 11.904 14.947 11.904 13.263V12.842C11.904 11.48 11.434 11.084 9.502 10.811L5.218 10.192C2.123 9.74702 1.008 8.68201 1.008 6.10702V4.57101C1.008 1.52502 2.494 0.114014 5.664 0.114014H10.245C13.439 0.114014 14.901 1.52502 14.901 4.52202V5.17001L11.805 5.16502V4.99201C11.805 3.35802 11.186 2.78802 9.378 2.78802H6.58C4.748 2.78802 4.104 3.35802 4.104 5.04202V5.33901C4.104 6.72601 4.525 7.07201 6.531 7.36902L10.815 7.98801C13.935 8.43401 15 9.49902 15 12.099V13.733C15 16.754 13.538 18.166 10.344 18.166H5.59C2.395 18.166 0.908997 16.754 0.908997 13.758Z" fill="white"/>
<path d="M31.369 11.8261V17.9181H28.274V11.8261L21.687 0.362061H25.129L29.859 8.48406L34.514 0.362061H37.981L31.369 11.8261Z" fill="white"/>
<path d="M59.081 0.362061V17.9181H56.035L48.087 5.38806V17.9181H44.991V0.362061H48.062L55.986 12.8421V0.362061H59.081Z" fill="white"/>
<path d="M105.218 13.7331C105.218 16.7541 103.757 18.1661 100.562 18.1661H96.204C93.01 18.1661 91.524 16.7541 91.524 13.7331V0.362061H94.619V13.2631C94.619 14.9471 95.238 15.5161 97.071 15.5161H99.696C101.503 15.5161 102.122 14.9471 102.122 13.2631V0.362061H105.218V13.7331Z" fill="white"/>
<path d="M126.912 4.57101V13.733C126.912 16.754 125.451 18.166 122.256 18.166H117.552C114.357 18.166 112.871 16.754 112.871 13.733V4.57101C112.871 1.52502 114.357 0.114014 117.552 0.114014H122.256C125.451 0.114014 126.912 1.52502 126.912 4.57101ZM121.39 2.78802H118.418C116.586 2.78802 115.967 3.35802 115.967 5.04202V13.263C115.967 14.947 116.586 15.516 118.418 15.516H121.39C123.222 15.516 123.817 14.947 123.817 13.263V5.04202C123.817 3.35802 123.222 2.78802 121.39 2.78802Z" fill="white"/>
<path d="M148.061 3.03606H142.49V17.9181H139.394V3.03606H133.847V0.362061H148.061V3.03606Z" fill="white"/>
<path d="M158.735 3.03606V7.56706H166.932V10.2171H158.735V15.2691H167.972V17.9181H155.64V0.362061H167.972V3.03606H158.735Z" fill="white"/>
<path d="M77.655 0.114014H72.95C69.755 0.114014 68.27 1.52502 68.27 4.57101V13.733C68.27 16.754 69.755 18.166 72.95 18.166H77.655C78.511 18.166 79.223 18.038 79.813 17.799C81.05 17.151 81.435 15.91 81.435 15.91L81.342 16.505L81.325 16.604C81.86 15.815 82.098 14.744 82.098 13.424V4.26202C82.098 1.21602 80.849 0.114014 77.655 0.114014ZM79.215 13.263C79.215 14.947 78.621 15.516 76.788 15.516H73.817C71.984 15.516 71.365 14.947 71.365 13.263V5.04202C71.365 3.35802 71.984 2.78802 73.817 2.78802H76.788C78.621 2.78802 79.215 3.35802 79.215 5.04202V13.263Z" fill="white"/>
<path d="M85.7772 18.1095L71.2052 2.07056L69.1255 3.88216L82.2384 18.1095H85.7772Z" fill="white"/>
</svg>