<svg xmlns="http://www.w3.org/2000/svg" width="1669" height="334" viewBox="0 0 1669 334" fill="none">
<g clipPath="url(#clip0_1601_821)">
<mask id="mask0_1601_821" style="mask-type:luminance" maskUnits="userSpaceOnUse" x="0" y="0" width="1669" height="334">
<path d="M1669 0H0V334H1669V0Z" fill="white"/>
</mask>
<g mask="url(#mask0_1601_821)">
<path fill-rule="evenodd" clip-rule="evenodd" d="M579.361 163.938L415.034 0V120.031L251.889 240.202L415.034 240.341V327.808L579.361 163.938Z" fill="white"/>
<path fill-rule="evenodd" clip-rule="evenodd" d="M0 163.868L164.327 327.738V208.681L327.471 87.5358L164.327 87.3967V0L0 163.868Z" fill="white"/>
<path d="M824.211 245.764H698.41V209.65L770.385 129.351H700.218V93.7939H822.89V128.099L748.758 209.928H824.142V245.764H824.211Z" fill="white"/>
<path d="M995.84 93.7982L934.991 157.745L997.091 245.768H946.743L906.548 187.667L889.579 205.549V245.698H848.48V22.1274H889.579V150.3L942.083 93.7982H995.84Z" fill="white"/>
<path d="M1174.63 78.9682L1136.31 90.7278C1134.85 82.9344 1130.96 75.7673 1124.56 69.4353C1118.16 63.0336 1108.78 59.8328 1096.47 59.8328C1086.38 59.8328 1078.11 62.6161 1071.71 68.1828C1065.31 73.5407 1062.11 80.0119 1062.11 87.6661C1062.11 101.026 1070.04 109.307 1085.9 112.368L1116.49 118.213C1135.9 121.901 1150.92 129.625 1161.63 141.385C1172.34 153.144 1177.69 166.921 1177.69 182.786C1177.69 200.878 1170.46 216.743 1156.06 230.381C1141.88 243.741 1122.68 250.49 1098.55 250.49C1084.71 250.49 1072.27 248.404 1061.14 244.298C1050.01 240.193 1041.04 234.696 1034.23 227.945C1027.41 220.918 1022.06 213.611 1018.16 206.027C1014.48 198.234 1012.18 190.162 1011.35 181.951L1050.92 171.445C1051.96 183.204 1056.48 192.946 1064.55 200.809C1072.75 208.601 1084.23 212.568 1098.83 212.568C1109.96 212.568 1118.58 210.063 1124.77 205.123C1131.17 200.182 1134.37 193.71 1134.37 185.64C1134.37 179.238 1132 173.811 1127.27 169.287C1122.75 164.556 1116.22 161.355 1107.8 159.685L1077.2 153.491C1059.47 149.804 1045.49 142.498 1035.2 131.573C1024.91 120.649 1019.76 107.08 1019.76 90.7973C1019.76 71.4532 1027.2 55.1707 1042.02 42.0194C1057.04 28.8682 1075.12 22.2578 1096.12 22.2578C1108.71 22.2578 1119.9 23.9973 1129.78 27.4765C1139.65 30.9557 1147.58 35.6873 1153.56 41.6715C1159.54 47.4469 1164.2 53.4311 1167.47 59.5544C1170.74 65.7473 1173.17 72.2186 1174.56 79.0378L1174.63 78.9682Z" fill="white"/>
<path d="M1246.95 305.675H1203.35L1239.16 226.628L1174.56 93.7939H1220.59L1261.07 182.791L1298.48 93.7939H1342.36L1246.88 305.675H1246.95Z" fill="white"/>
<path d="M1399.16 158.297V245.694H1358.06V93.794H1397.9V112.651C1402.21 105.206 1408.41 99.5693 1416.47 95.6726C1424.54 91.7761 1432.95 89.8276 1441.79 89.8276C1459.73 89.8276 1473.29 95.464 1482.61 106.806C1492.06 117.939 1496.8 132.343 1496.8 150.086V245.833H1455.69V157.184C1455.69 148.138 1453.33 140.832 1448.6 135.266C1444.09 129.699 1437.06 126.916 1427.6 126.916C1418.97 126.916 1412.03 129.908 1406.87 135.891C1401.73 141.876 1399.16 149.391 1399.16 158.436V158.297Z" fill="white"/>
<path d="M1597.57 127.124C1586.64 127.124 1577.47 130.951 1570.03 138.537C1562.58 146.121 1558.9 156.558 1558.9 169.709C1558.9 182.861 1562.58 193.367 1570.03 201.231C1577.67 208.885 1586.92 212.642 1597.85 212.642C1607.51 212.642 1615.23 210.137 1621 205.196C1626.78 200.047 1630.67 193.994 1632.75 186.966L1668.92 199.004C1665.23 212.99 1657.17 225.028 1644.79 235.117C1632.4 245.207 1616.77 250.286 1597.78 250.286C1575.11 250.286 1556.05 242.702 1540.61 227.394C1525.39 211.947 1517.73 192.671 1517.73 169.64C1517.73 146.607 1525.24 127.124 1540.26 111.886C1555.49 96.6469 1574.27 88.9927 1596.52 88.9927C1615.92 88.9927 1631.79 94.0723 1644.08 104.162C1656.48 114.043 1664.39 126.081 1667.88 140.276L1631.08 152.662C1626.15 135.544 1614.88 127.055 1597.43 127.055L1597.57 127.124Z" fill="white"/>
</g>
</g>
<defs>
<clipPath id="clip0_1601_821">
<rect width="1669" height="334" fill="white"/>
</clipPath>
</defs>
</svg>